{
.appVersion = "3151";
.formatVersion = 3;
DisplayStrings = (
" "
);
axes = (
{
name = Samba;
tag = SMBA;
}
);
date = "2023-03-02 01:26:52 +0000";
familyName = Gilberto;
fontMaster = (
{
axesValues = (
0
);
id = "CE1FC1EA-F01D-4D6B-B303-7D1D353E5BAE";
metricValues = (
{
over = 16;
pos = 800;
},
{
over = 16;
pos = 700;
},
{
over = 16;
pos = 500;
},
{
over = -16;
},
{
over = -16;
pos = -200;
},
{
over = -16;
}
);
name = Regular;
visible = 1;
},
{
axesValues = (
100
);
id = m01;
metricValues = (
{
over = 16;
pos = 800;
},
{
over = 16;
pos = 700;
},
{
over = 16;
pos = 500;
},
{
over = -16;
},
{
over = -16;
pos = -200;
},
{
over = -16;
}
);
name = Samba;
}
);
glyphs = (
{
glyphname = A;
lastChange = "2023-03-21 13:00:53 +0000";
layers = (
{
layerId = m01;
shapes = (
{
closed = 1;
nodes = (
(355,325,o),
(335,314,o),
(306,314,c),
(277,314,o),
(257,325,o),
(241,343,c),
(206,391,o),
(261,450,o),
(306,444,c),
(306,444,l),
(306,444,o),
(306,444,o),
(306,444,c),
(306,444,o),
(306,444,o),
(306,444,c),
(306,444,l),
(351,450,o),
(407,391,o),
(371,343,c)
);
},
{
closed = 1;
nodes = (
(586,60,o),
(578,79,o),
(568,97,c),
(547,138,o),
(520,176,o),
(490,211,c),
(470,233,o),
(449,249,o),
(426,265,c),
(425,266,o),
(424,267,o),
(424,268,c),
(424,269,o),
(435,270,o),
(435,271,c),
(435,274,o),
(452,287,o),
(455,291,c),
(462,298,o),
(468,305,o),
(473,313,c),
(484,330,o),
(490,347,o),
(492,366,c),
(497,414,o),
(477,466,o),
(437,496,c),
(434,498,o),
(431,500,o),
(428,502,c),
(426,504,o),
(423,506,o),
(420,508,c),
(417,509,o),
(414,510,o),
(411,511,c),
(439,526,o),
(452,558,o),
(454,589,c),
(442,690,o),
(397,709,o),
(307,713,c),
(244,713,o),
(197,705,o),
(165,629,c),
(149,589,o),
(164,532,o),
(202,511,c),
(199,510,o),
(196,509,o),
(193,508,c),
(190,506,o),
(187,504,o),
(185,502,c),
(182,500,o),
(179,498,o),
(176,496,c),
(164,487,o),
(155,477,o),
(147,465,c),
(145,462,o),
(143,459,o),
(141,456,c),
(128,433,o),
(118,407,o),
(120,381,c),
(120,378,o),
(120,375,o),
(121,372,c),
(121,366,o),
(122,359,o),
(123,353,c),
(131,318,o),
(152,294,o),
(178,271,c),
(178,270,o),
(188,269,o),
(188,268,c),
(188,267,o),
(187,266,o),
(186,265,c),
(163,249,o),
(142,233,o),
(122,211,c),
(92,176,o),
(65,138,o),
(44,97,c),
(34,79,o),
(26,60,o),
(21,40,c),
(21,37,o),
(15,1,o),
(13,0,c),
(52,2,o),
(89,-1,o),
(128,0,c),
(130,0,o),
(131,2,o),
(131,3,c),
(134,14,o),
(146,54,o),
(148,57,c),
(156,78,o),
(168,97,o),
(182,114,c),
(207,140,o),
(266,161,o),
(304,161,c),
(306,161,l),
(306,161,l),
(306,161,l),
(306,161,l),
(308,161,l),
(346,161,o),
(405,140,o),
(430,114,c),
(444,97,o),
(456,78,o),
(464,57,c),
(466,54,o),
(478,14,o),
(481,3,c),
(481,2,o),
(482,0,o),
(484,0,c),
(523,-1,o),
(560,2,o),
(599,0,c),
(597,1,o),
(591,37,o),
(590,40,c)
);
},
{
closed = 1;
nodes = (
(328,539,o),
(283,544,o),
(266,568,c),
(243,595,o),
(271,646,o),
(311,641,c),
(328,635,o),
(340,624,o),
(347,604,c),
(350,594,o),
(348,581,o),
(342,571,c)
);
}
);
width = 595;
},
{
layerId = "CE1FC1EA-F01D-4D6B-B303-7D1D353E5BAE";
shapes = (
{
closed = 1;
nodes = (
(377,280,o),
(327,280,o),
(298,280,c),
(269,280,o),
(221,280,o),
(205,280,c),
(227,352,o),
(284,547,o),
(296,585,c),
(296,585,l),
(296,585,o),
(296,585,o),
(296,585,c),
(296,585,o),
(296,585,o),
(296,585,c),
(296,585,l),
(309,547,o),
(376,334,o),
(394,280,c)
);
},
{
closed = 1;
nodes = (
(599,51,o),
(592,69,o),
(585,86,c),
(572,124,o),
(569,132,o),
(549,188,c),
(541,211,o),
(534,229,o),
(528,244,c),
(528,245,o),
(528,246,o),
(527,247,c),
(527,248,o),
(527,249,o),
(526,250,c),
(526,252,o),
(521,264,o),
(520,268,c),
(517,275,o),
(515,282,o),
(512,289,c),
(506,305,o),
(501,321,o),
(494,338,c),
(477,383,o),
(460,432,o),
(449,461,c),
(449,463,o),
(448,465,o),
(448,467,c),
(446,468,o),
(446,470,o),
(445,472,c),
(445,473,o),
(445,474,o),
(444,475,c),
(439,489,o),
(422,533,o),
(412,563,c),
(396,605,o),
(380,657,o),
(365,700,c),
(309,700,o),
(265,699,o),
(226,700,c),
(214,662,o),
(164,510,o),
(158,490,c),
(158,489,o),
(158,488,o),
(157,487,c),
(156,485,o),
(156,484,o),
(155,482,c),
(154,480,o),
(155,478,o),
(154,476,c),
(151,468,o),
(148,457,o),
(144,446,c),
(143,443,o),
(142,440,o),
(141,437,c),
(135,416,o),
(127,391,o),
(118,366,c),
(118,363,o),
(117,360,o),
(116,358,c),
(114,352,o),
(111,345,o),
(109,340,c),
(98,307,o),
(91,283,o),
(84,262,c),
(84,261,o),
(83,260,o),
(83,259,c),
(83,258,o),
(82,257,o),
(82,256,c),
(78,241,o),
(72,226,o),
(66,204,c),
(55,171,o),
(44,140,o),
(31,98,c),
(23,72,o),
(19,61,o),
(13,42,c),
(12,39,o),
(1,-1,o),
(0,-1,c),
(1,-1,o),
(81,-1,o),
(120,-1,c),
(122,-1,o),
(123,-1,o),
(123,-1,c),
(126,-1,o),
(138,54,o),
(140,57,c),
(144,78,o),
(167,149,o),
(171,166,c),
(216,166,o),
(258,166,o),
(296,166,c),
(298,166,l),
(298,166,l),
(298,166,l),
(298,166,l),
(300,166,l),
(338,166,o),
(405,166,o),
(431,166,c),
(442,132,o),
(457,80,o),
(465,59,c),
(469,47,o),
(475,27,o),
(482,-1,c),
(483,-1,o),
(484,-1,o),
(484,-1,c),
(526,-1,o),
(617,-1,o),
(618,-1,c),
(617,-1,o),
(606,30,o),
(605,33,c)
);
},
{
closed = 1;
nodes = (
(295,634,o),
(295,634,o),
(294,634,c),
(294,635,o),
(294,635,o),
(295,635,c),
(295,635,o),
(295,635,o),
(295,635,c),
(295,635,o),
(295,635,o),
(295,634,c)
);
}
);
width = 618;
}
);
unicode = (65,97);
},
{
glyphname = B;
lastChange = "2023-03-21 13:00:53 +0000";
layers = (
{
layerId = m01;
shapes = (
{
closed = 1;
nodes = (
(430.136,266.791,o),
(356.015,292.806,o),
(282.092,307.068,c),
(271.394,309.132,o),
(260.368,310.895,o),
(249.112,312.39,c),
(246.04,312.798,o),
(244.127,315.938,o),
(245.151,318.863,c),
(252,341,o),
(249,369,o),
(239.582,393.139,c),
(238.382,396.085,o),
(240.338,399.372,o),
(243.495,399.764,c),
(256.704,401.402,o),
(269.62,403.402,o),
(282.092,405.809,c),
(356.015,420.071,o),
(435.802,426.614,o),
(491.086,477.718,c),
(545.21,527.748,o),
(549,625,o),
(549,702,c),
(549,705,o),
(547,707,o),
(544,707,c),
(44.796,709.537,l),
(42.08,709.519,o),
(39.902,707.282,o),
(39.957,704.566,c),
(45.218,443.843,l),
(45.248,442.338,o),
(44.571,440.914,o),
(43.407,439.958,c),
(35.518,433.477,o),
(28.499,426.099,o),
(22.676,417.904,c),
(22.617,417.822,o),
(22.555,417.741,o),
(22.489,417.664,c),
(-17.994,369.986,o),
(-0.717,295.183,o),
(45.93,251.412,c),
(46.891,250.51,o),
(47.459,249.267,o),
(47.485,247.949,c),
(52.346,4.775,l),
(52.399,2.123,o),
(54.564,0,o),
(57.217,0,c),
(552,-2,l),
(555,-2,o),
(557,1,o),
(557,3,c),
(557,80,o),
(539.552,165.649,o),
(485.421,215.687,c)
);
},
{
closed = 1;
nodes = (
(451,44,o),
(406,49,o),
(389,73,c),
(366,100,o),
(394,151,o),
(434,146,c),
(451,140,o),
(463,129,o),
(470,109,c),
(473,99,o),
(471,86,o),
(465,76,c)
);
},
{
closed = 1;
nodes = (
(445,540,o),
(400,545,o),
(383,569,c),
(360,596,o),
(388,647,o),
(428,642,c),
(445,636,o),
(457,625,o),
(464,605,c),
(467,595,o),
(465,582,o),
(459,572,c)
);
}
);
width = 577;
},
{
layerId = "CE1FC1EA-F01D-4D6B-B303-7D1D353E5BAE";
shapes = (
{
closed = 1;
nodes = (
(484,376,o),
(287,345,o),
(213,345,c),
(202,345,o),
(191,345,o),
(180,345,c),
(177,345,o),
(175,345,o),
(176,345,c),
(183,345,o),
(180,345,o),
(171,345,c),
(169,345,o),
(171,345,o),
(174,345,c),
(188,345,o),
(201,345,o),
(213,345,c),
(479,345,o),
(536,424,o),
(540,537,c),
(542,619,o),
(508,647,o),
(462,673,c),
(439,683,o),
(412,698,o),
(342,705,c),
(57,710,l),
(57,710,o),
(57,707,o),
(57,705,c),
(57,444,l),
(57,442,o),
(57,441,o),
(57,440,c),
(57,433,o),
(57,426,o),
(57,418,c),
(57,418,o),
(57,418,o),
(57,418,c),
(57,348,o),
(57,295,o),
(57,251,c),
(57,251,o),
(57,249,o),
(57,248,c),
(57,5,l),
(57,2,o),
(57,0,o),
(57,0,c),
(424,0,l),
(467,0,o),
(515,37,o),
(526,89,c),
(526,166,o),
(526,160,o),
(518,227,c)
);
},
{
closed = 1;
nodes = (
(325,113,o),
(210,113,o),
(169,113,c),
(169,152,o),
(171,206,o),
(171,240,c),
(235,240,o),
(346,240,o),
(369,240,c),
(418,240,o),
(435,124,o),
(367,113,c)
);
},
{
closed = 1;
nodes = (
(310,472,o),
(201,472,o),
(169,472,c),
(169,500,o),
(169,562,o),
(169,587,c),
(231,587,o),
(317,587,o),
(357,587,c),
(412,582,o),
(432,492,o),
(357,472,c)
);
}
);
width = 570;
}
);
unicode = (66,98);
},
{
glyphname = C;
lastChange = "2023-03-21 13:00:53 +0000";
layers = (
{
layerId = m01;
shapes = (
{
closed = 1;
nodes = (
(378,2,o),
(243,30,o),
(139,122,c),
(113,145,o),
(89,171,o),
(69,200,c),
(4,293,o),
(-24,418,o),
(24,521,c),
(48,574,o),
(92,617,o),
(142,647,c),
(192,678,o),
(249,696,o),
(306,709,c),
(360,714,o),
(414,714,o),
(469,717,c),
(497,717,o),
(524,718,o),
(552,716,c),
(567,714,o),
(611,714,o),
(619,714,c),
(620,710,o),
(620,707,o),
(620,704,c),
(618,673,o),
(616,643,o),
(615,613,c),
(614,605,o),
(610,605,o),
(604,606,c),
(502,612,o),
(392,619,o),
(293,591,c),
(250,579,o),
(210,558,o),
(179,526,c),
(126,471,o),
(113,392,o),
(135,321,c),
(156,252,o),
(214,200,o),
(277,168,c),
(302,155,o),
(329,145,o),
(357,138,c),
(425,120,o),
(487,120,o),
(557,117,c),
(594,116,o),
(616,94,o),
(612,56,c),
(610,40,o),
(609,24,o),
(607,8,c),
(605,-10,o),
(591,-8,o),
(576,-7,c),
(555,-7,o),
(534,-7,o),
(512,-5,c)
);
},
{
closed = 1;
nodes = (
(557,264,o),
(609,278,o),
(608,245,c),
(607,218,o),
(608,191,o),
(605,164,c),
(605,162,o),
(605,159,o),
(603,157,c),
(600,154,o),
(596,154,o),
(592,155,c),
(524,159,o),
(454,158,o),
(387,174,c),
(331,187,o),
(277,213,o),
(239,256,c),
(207,291,o),
(189,338,o),
(188,385,c),
(188,438,o),
(213,493,o),
(256,524,c),
(309,562,o),
(380,563,o),
(445,560,c),
(497,559,o),
(548,556,o),
(600,553,c),
(603,553,o),
(608,553,o),
(610,549,c),
(611,547,o),
(611,544,o),
(611,541,c),
(611,511,o),
(609,481,o),
(609,451,c),
(609,445,o),
(606,442,o),
(600,443,c),
(522,449,o),
(444,455,o),
(366,443,c),
(347,440,o),
(327,436,o),
(314,422,c),
(293,400,o),
(297,364,o),
(313,338,c),
(353,270,o),
(436,265,o),
(507,265,c),
(517,265,o),
(526,264,o),
(536,264,c)
);
}
);
width = 620;
},
{
layerId = "CE1FC1EA-F01D-4D6B-B303-7D1D353E5BAE";
shapes = (
{
closed = 1;
nodes = (
(392,-16,o),
(248,-23,o),
(144,69,c),
(118,92,o),
(70,148,o),
(55,183,cs),
(11,286,o),
(7,402,o),
(46,505,c),
(70,558,o),
(104,601,o),
(144,634,c),
(194,669,o),
(220,686,o),
(297,704,c),
(347,710,o),
(382,719,o),
(437,708,c),
(472,700,o),
(502,692,o),
(530,675,c),
(545,673,o),
(662,575,o),
(650,564,c),
(646,562,o),
(644,560,o),
(642,558,c),
(618,538,o),
(595,519,o),
(572,499,c),
(566,494,o),
(557,489,o),
(558,490,c),
(513,580,o),
(405,619,o),
(306,591,c),
(263,579,o),
(223,558,o),
(192,526,c),
(139,471,o),
(135,374,o),
(157,303,c),
(178,234,o),
(218,166,o),
(281,134,c),
(295,124,o),
(342,106,o),
(370,106,c),
(435,102,o),
(493,100,o),
(556,210,c),
(557,209,o),
(574,195,o),
(603,171,c),
(615,160,o),
(628,150,o),
(640,140,c),
(654,128,o),
(652,129,o),
(652,130,c),
(652,130,o),
(574,35,o),
(490,10,c)
);
},
{
closed = 1;
nodes = (
(104,320,o),
(113,325,o),
(113,313,c),
(113,302,o),
(113,292,o),
(113,282,c),
(113,281,o),
(113,280,o),
(112,279,c),
(112,278,o),
(111,278,o),
(110,278,c),
(98,280,o),
(85,279,o),
(73,286,c),
(62,291,o),
(52,300,o),
(45,317,c),
(39,330,o),
(36,348,o),
(36,366,c),
(36,386,o),
(41,407,o),
(49,419,c),
(58,434,o),
(71,434,o),
(83,433,c),
(93,432,o),
(102,431,o),
(112,430,c),
(112,430,o),
(113,430,o),
(114,429,c),
(114,428,o),
(114,427,o),
(114,426,c),
(114,414,o),
(113,403,o),
(113,391,c),
(113,389,o),
(113,388,o),
(112,388,c),
(97,391,o),
(83,393,o),
(69,388,c),
(65,387,o),
(62,385,o),
(59,380,c),
(55,372,o),
(56,358,o),
(59,348,c),
(66,322,o),
(82,320,o),
(95,320,c),
(97,320,o),
(98,320,o),
(100,320,c)
);
}
);
width = 672;
},
{
associatedMasterId = "CE1FC1EA-F01D-4D6B-B303-7D1D353E5BAE";
layerId = "3872C9EC-F850-4235-870A-48C63C4428AF";
name = "Mar 3, 23, 18:05";
shapes = (
{
closed = 1;
nodes = (
(366,2,o),
(231,30,o),
(127,122,c),
(101,145,o),
(77,171,o),
(57,200,c),
(-8,293,o),
(-36,418,o),
(12,521,c),
(36,574,o),
(80,617,o),
(130,647,c),
(180,678,o),
(237,696,o),
(294,709,c),
(348,721,o),
(403,730,o),
(458,733,c),
(486,735,o),
(513,734,o),
(541,732,c),
(556,730,o),
(600,730,o),
(607,714,c),
(608,710,o),
(608,707,o),
(608,704,c),
(606,673,o),
(604,643,o),
(603,613,c),
(602,605,o),
(598,605,o),
(592,606,c),
(490,612,o),
(380,619,o),
(281,591,c),
(238,579,o),
(198,558,o),
(167,526,c),
(114,471,o),
(101,392,o),
(123,321,c),
(144,252,o),
(202,200,o),
(265,168,c),
(290,155,o),
(317,145,o),
(345,138,c),
(413,120,o),
(475,120,o),
(545,117,c),
(582,116,o),
(604,94,o),
(600,56,c),
(598,40,o),
(597,24,o),
(595,8,c),
(593,-10,o),
(579,-8,o),
(564,-7,c),
(543,-7,o),
(522,-7,o),
(500,-5,c)
);
},
{
closed = 1;
nodes = (
(545,264,o),
(597,278,o),
(596,245,c),
(595,218,o),
(596,191,o),
(593,164,c),
(593,162,o),
(593,159,o),
(591,157,c),
(588,154,o),
(584,154,o),
(580,155,c),
(512,159,o),
(442,158,o),
(375,174,c),
(319,187,o),
(265,213,o),
(227,256,c),
(195,291,o),
(177,338,o),
(176,385,c),
(176,438,o),
(201,493,o),
(244,524,c),
(297,562,o),
(368,563,o),
(433,560,c),
(485,559,o),
(536,556,o),
(588,553,c),
(591,553,o),
(596,553,o),
(598,549,c),
(599,547,o),
(599,544,o),
(599,541,c),
(599,511,o),
(597,481,o),
(597,451,c),
(597,445,o),
(594,442,o),
(588,443,c),
(510,449,o),
(432,455,o),
(354,443,c),
(335,440,o),
(315,436,o),
(302,422,c),
(281,400,o),
(285,364,o),
(301,338,c),
(341,270,o),
(424,265,o),
(495,265,c),
(505,265,o),
(514,264,o),
(524,264,c)
);
},
{
closed = 1;
nodes = (
(482,-10,o),
(582,35,o),
(650,129,c),
(559,210,l),
(516,139,o),
(448,107,o),
(371,107,cs),
(247,107,o),
(138,201,o),
(138,351,cs),
(138,499,o),
(249,593,o),
(371,593,cs),
(451,593,o),
(516,553,o),
(559,487,c),
(654,564,l),
(589,661,o),
(486,710,o),
(371,710,cs),
(185,710,o),
(15,567,o),
(15,351,cs),
(15,133,o),
(183,-10,o),
(369,-10,cs)
);
}
);
visible = 1;
width = 600;
}
);
unicode = (67,99);
},
{
glyphname = D;
lastChange = "2023-03-21 13:00:53 +0000";
layers = (
{
layerId = m01;
shapes = (
{
closed = 1;
nodes = (
(544,237,l),
(566,271,o),
(585,307,o),
(600,345,c),
(558,454,o),
(482,548,o),
(385,612,c),
(288,675,o),
(170,707,o),
(54,701,c),
(54,619,o),
(54,536,o),
(54,454,c),
(54,236,l),
(54,154,o),
(54,71,o),
(54,-11,c),
(170,-17,o),
(288,15,o),
(385,78,c),
(387,80,o),
(390,81,o),
(393,83,c),
(425,107,o),
(436,113,o),
(453,131,c),
(503,183,l),
(527,209,o),
(534,222,o),
(546,239,c)
);
},
{
closed = 1;
nodes = (
(389,222,o),
(369,211,o),
(340,211,c),
(311,211,o),
(291,222,o),
(275,240,c),
(249,288,o),
(295,347,o),
(340,341,c),
(340,341,l),
(340,341,o),
(340,341,o),
(340,341,c),
(340,341,o),
(340,341,o),
(340,341,c),
(340,341,l),
(385,347,o),
(431,288,o),
(405,240,c)
);
}
);
width = 600;
},
{
layerId = "CE1FC1EA-F01D-4D6B-B303-7D1D353E5BAE";
shapes = (
{
closed = 1;
nodes = (
(582,250,l),
(589,286,o),
(593,312,o),
(593,350,c),
(600,484,o),
(500,619,o),
(413,670,c),
(316,726,o),
(189,700,o),
(54,701,c),
(54,619,o),
(54,536,o),
(54,454,c),
(54,236,l),
(54,154,o),
(50,82,o),
(50,0,c),
(166,-6,o),
(272,-3,o),
(353,11,c),
(355,13,o),
(371,15,o),
(421,35,c),
(470,63,o),
(489,84,o),
(506,100,c),
(548,162,l),
(563,192,o),
(570,209,o),
(576,226,c)
);
},
{
closed = 1;
nodes = (
(470,307,o),
(456,240,o),
(415,181,c),
(343,91,o),
(233,113,o),
(169,113,c),
(169,170,o),
(169,493,o),
(169,587,c),
(246,587,l),
(134,587,o),
(246,587,o),
(246,587,c),
(271,589,o),
(248,587,o),
(248,587,c),
(267,587,l),
(403,587,o),
(470,469,o),
(470,350,c)
);
}
);
width = 600;
}
);
unicode = (68,100);
},
{
glyphname = E;
lastChange = "2023-03-21 13:00:53 +0000";
layers = (
{
layerId = m01;
shapes = (
{
closed = 1;
nodes = (
(343,566,l),
(405,568,o),
(466,570,o),
(527,568,c),
(559,567,o),
(589,565,o),
(620,563,c),
(632,563,o),
(641,572,o),
(641,585,c),
(641,695,l),
(641,706,o),
(633,716,o),
(621,716,c),
(596,716,o),
(570,715,o),
(545,715,c),
(482,714,o),
(421,713,o),
(357,712,c),
(250,708,l),
(215,706,o),
(180,707,o),
(145,710,c),
(111,711,o),
(76,711,o),
(42,713,c),
(30,714,o),
(21,704,o),
(21,693,c),
(21,583,l),
(21,571,o),
(29,562,o),
(41,562,c),
(123,562,l),
(193,563,o),
(261,564,o),
(331,566,c)
);
},
{
closed = 1;
nodes = (
(318,275,l),
(257,277,o),
(196,278,o),
(134,277,c),
(103,276,o),
(72,274,o),
(41,272,c),
(29,271,o),
(20,280,o),
(20,293,c),
(20,421,l),
(20,432,o),
(28,442,o),
(40,442,c),
(65,442,o),
(91,441,o),
(117,441,c),
(304,437,l),
(339,436,o),
(375,434,o),
(411,432,c),
(446,432,o),
(481,432,o),
(516,433,c),
(550,434,o),
(585,436,o),
(619,438,c),
(631,440,o),
(640,430,o),
(640,418,c),
(640,290,l),
(640,278,o),
(632,270,o),
(620,270,c),
(593,270,o),
(566,270,o),
(538,271,c),
(468,272,o),
(400,273,o),
(330,275,c)
);
},
{
closed = 1;
nodes = (
(343,-8,l),
(405,-6,o),
(466,-5,o),
(527,-7,c),
(559,-8,o),
(589,-8,o),
(620,-10,c),
(632,-11,o),
(641,-1,o),
(641,10,c),
(641,125,l),
(641,137,o),
(633,145,o),
(621,145,c),
(545,145,l),
(482,145,o),
(421,144,o),
(357,142,c),
(322,142,o),
(286,139,o),
(250,138,c),
(215,137,o),
(180,138,o),
(145,139,c),
(116,140,o),
(86,141,o),
(57,143,cs),
(52,143,o),
(47,144,o),
(42,144,c),
(30,145,o),
(21,135,o),
(21,122,c),
(21,8,l),
(21,-4,o),
(29,-13,o),
(41,-13,c),
(68,-13,o),
(96,-12,o),
(123,-12,c),
(193,-11,o),
(261,-10,o),
(331,-8,c)
);
}
);
width = 661;
},
{
layerId = "CE1FC1EA-F01D-4D6B-B303-7D1D353E5BAE";
shapes = (
{
closed = 1;
nodes = (
(301,574,l),
(363,574,o),
(424,574,o),
(485,574,c),
(517,574,o),
(547,574,o),
(578,574,c),
(590,574,o),
(599,574,o),
(599,574,c),
(599,705,l),
(599,705,o),
(591,705,o),
(579,705,c),
(554,705,o),
(528,705,o),
(503,705,c),
(440,705,o),
(379,705,o),
(315,705,c),
(260,705,l),
(225,705,o),
(190,705,o),
(155,705,c),
(121,705,o),
(86,705,o),
(52,705,c),
(40,705,o),
(31,705,o),
(31,705,c),
(31,562,l),
(31,544,o),
(30,517,o),
(30,500,c),
(151,500,l),
(151,530,o),
(151,551,o),
(151,574,c)
);
},
{
closed = 1;
nodes = (
(151,299,l),
(151,266,o),
(151,247,o),
(151,219,c),
(120,219,o),
(31,219,o),
(31,219,c),
(31,219,o),
(31,219,o),
(31,219,c),
(30,442,l),
(30,428,o),
(30,500,o),
(30,500,c),
(50,500,o),
(125,500,o),
(151,500,c),
(151,413,l),
(186,413,o),
(208,413,o),
(244,413,c),
(279,413,o),
(314,413,o),
(349,413,c),
(383,413,o),
(418,413,o),
(452,413,c),
(464,413,o),
(473,413,o),
(473,413,c),
(473,299,l),
(473,299,o),
(465,299,o),
(453,299,c),
(426,299,o),
(399,299,o),
(371,299,c),
(301,299,o),
(233,299,o),
(163,299,c)
);
},
{
closed = 1;
nodes = (
(301,-1,l),
(363,-1,o),
(424,-1,o),
(485,-1,c),
(517,-1,o),
(547,-1,o),
(578,-1,c),
(590,-1,o),
(599,-1,o),
(599,-1,c),
(599,134,l),
(599,134,o),
(591,134,o),
(579,134,c),
(503,134,l),
(440,134,o),
(379,134,o),
(315,134,c),
(280,134,o),
(187,135,o),
(151,135,c),
(151,162,o),
(151,200,o),
(151,219,c),
(117,219,o),
(65,219,o),
(31,219,c),
(31,210,o),
(31,162,o),
(31,134,c),
(16,134,o),
(31,134,o),
(31,134,c),
(31,-1,l),
(31,-1,o),
(31,-1,o),
(31,-1,c),
(31,-1,o),
(54,-1,o),
(81,-1,c),
(151,-1,o),
(219,-1,o),
(289,-1,c)
);
}
);
width = 619;
},
{
associatedMasterId = "CE1FC1EA-F01D-4D6B-B303-7D1D353E5BAE";
layerId = "0F6FF23E-8170-4787-9295-08A34CB79C4B";
name = "Mar 7, 23, 20:21";
shapes = (
{
closed = 1;
nodes = (
(320,566,l),
(382,568,o),
(443,570,o),
(504,568,c),
(536,567,o),
(566,565,o),
(597,563,c),
(609,563,o),
(618,572,o),
(618,585,c),
(618,695,l),
(618,706,o),
(610,716,o),
(598,716,c),
(573,716,o),
(547,715,o),
(522,715,c),
(459,714,o),
(398,713,o),
(334,712,c),
(227,708,l),
(192,706,o),
(157,707,o),
(122,710,c),
(88,711,o),
(53,711,o),
(19,713,c),
(7,714,o),
(-2,704,o),
(-2,693,c),
(-2,583,l),
(-2,571,o),
(6,562,o),
(18,562,c),
(100,562,l),
(170,563,o),
(238,564,o),
(308,566,c)
);
},
{
closed = 1;
nodes = (
(295,275,l),
(234,275,o),
(173,275,o),
(111,275,c),
(80,275,o),
(49,275,o),
(18,275,c),
(6,275,o),
(-3,275,o),
(-3,293,c),
(-3,421,l),
(-3,432,o),
(5,442,o),
(17,442,c),
(42,442,o),
(68,441,o),
(94,441,c),
(281,437,l),
(316,436,o),
(352,434,o),
(388,432,c),
(423,432,o),
(458,432,o),
(493,433,c),
(527,434,o),
(562,436,o),
(596,438,c),
(608,440,o),
(617,430,o),
(617,418,c),
(617,290,l),
(617,275,o),
(609,275,o),
(597,275,c),
(570,275,o),
(543,275,o),
(515,275,c),
(445,275,o),
(377,275,o),
(307,275,c)
);
},
{
closed = 1;
nodes = (
(320,-1,l),
(382,-1,o),
(443,-1,o),
(504,-1,c),
(536,-1,o),
(566,-1,o),
(597,-1,c),
(609,-1,o),
(618,-1,o),
(618,-1,c),
(618,134,l),
(618,134,o),
(610,134,o),
(598,134,c),
(522,134,l),
(459,134,o),
(398,134,o),
(334,134,c),
(299,134,o),
(263,134,o),
(227,134,c),
(192,134,o),
(157,134,o),
(122,134,c),
(88,134,o),
(53,134,o),
(19,134,c),
(7,134,o),
(-2,134,o),
(-2,134,c),
(-2,-1,l),
(-2,-1,o),
(6,-1,o),
(18,-1,c),
(45,-1,o),
(73,-1,o),
(100,-1,c),
(170,-1,o),
(238,-1,o),
(308,-1,c)
);
},
{
closed = 1;
nodes = (
(50,-1,l),
(493,-1,l),
(493,113,l),
(169,113,l),
(169,299,l),
(493,299,l),
(493,412,l),
(169,412,l),
(169,587,l),
(493,587,l),
(493,700,l),
(50,700,l)
);
}
);
visible = 1;
width = 614;
}
);
unicode = (69,101);
},
{
glyphname = F;
lastChange = "2023-03-21 13:00:53 +0000";
layers = (
{
layerId = m01;
shapes = (
{
closed = 1;
nodes = (
(537,698,o),
(522,698,o),
(512,698,c),
(370,698,o),
(229,695,o),
(88,696,c),
(85,696,o),
(82,696,o),
(80,694,c),
(78,691,o),
(78,688,o),
(78,685,c),
(78,461,o),
(77,238,o),
(77,14,c),
(77,10,o),
(77,6,o),
(74,1,c),
(72,-3,o),
(133,-5,o),
(137,-5,c),
(165,-5,o),
(193,-4,o),
(221,-2,c),
(228,-1,o),
(235,-1,o),
(242,2,c),
(261,9,o),
(260,27,o),
(255,43,c),
(234,113,o),
(203,179,o),
(165,241,c),
(153,260,o),
(151,263,o),
(174,270,c),
(191,276,o),
(207,282,o),
(224,288,c),
(258,302,o),
(291,319,o),
(321,340,c),
(370,373,o),
(241,405,o),
(223,414,c),
(218,416,o),
(212,421,o),
(215,425,c),
(216,428,o),
(219,429,o),
(221,430,c),
(322,463,o),
(423,503,o),
(499,580,c),
(524,606,o),
(547,637,o),
(555,672,c),
(558,683,o),
(554,689,o),
(546,693,c)
);
}
);
width = 576;
},
{
layerId = "CE1FC1EA-F01D-4D6B-B303-7D1D353E5BAE";
shapes = (
{
closed = 1;
nodes = (
(503,681,o),
(503,694,o),
(503,706,c),
(361,706,o),
(167,706,o),
(115,706,c),
(112,706,o),
(79,706,o),
(76,706,c),
(76,703,o),
(77,684,o),
(76,681,c),
(76,457,o),
(68,231,o),
(68,7,c),
(68,3,o),
(74,-18,o),
(91,-18,cs),
(93,-18,o),
(148,-18,o),
(152,-18,c),
(172,-18,o),
(190,-18,o),
(192,-18,c),
(196,-19,o),
(196,-8,o),
(196,-5,c),
(196,2,o),
(196,20,o),
(196,36,c),
(196,106,o),
(196,185,o),
(196,247,c),
(196,306,o),
(196,306,o),
(200,306,c),
(217,306,o),
(233,306,o),
(250,306,c),
(284,306,o),
(376,305,o),
(406,305,c),
(406,378,o),
(406,388,o),
(406,418,c),
(401,418,o),
(192,418,o),
(195,418,c),
(196,418,o),
(194,465,o),
(196,466,c),
(196,528,o),
(195,574,o),
(195,593,c),
(220,593,o),
(449,593,o),
(503,593,c),
(503,626,o),
(503,646,o),
(503,665,c)
);
}
);
width = 600;
}
);
unicode = (70,102);
},
{
glyphname = G;
lastChange = "2023-03-21 13:00:53 +0000";
layers = (
{
layerId = m01;
shapes = (
{
closed = 1;
nodes = (
(223,395,o),
(334,421,o),
(440,464,c),
(490,484,o),
(543,504,o),
(579,546,c),
(595,563,o),
(606,584,o),
(611,607,c),
(612,615,o),
(616,700,o),
(606,700,c),
(409,700,o),
(211,700,o),
(14,700,c),
(11,700,o),
(9,698,o),
(9,694,c),
(9,627,o),
(9,543,o),
(8,477,c),
(8,442,o),
(7,408,o),
(7,373,c),
(6,341,o),
(5,309,o),
(11,278,c),
(13,268,o),
(16,258,o),
(19,249,c),
(24,235,o),
(30,222,o),
(36,210,c),
(77,122,o),
(156,47,o),
(247,25,c),
(308,9,o),
(375,25,o),
(431,59,c),
(443,41,o),
(458,17,o),
(475,4,c),
(478,1,o),
(483,0,o),
(487,0,c),
(571,0,l),
(583,0,o),
(592,11,o),
(592,23,c),
(592,236,l),
(592,317,l),
(592,329,o),
(583,339,o),
(571,339,c),
(303,366,l),
(291,366,o),
(281,357,o),
(281,344,c),
(272,213,l),
(272,200,o),
(282,190,o),
(294,190,c),
(383,163,l),
(397,160,o),
(416,165,o),
(411,158,c),
(409,149,o),
(406,186,o),
(405,176,c),
(386,175,o),
(367,177,o),
(348,181,c),
(288,192,o),
(233,224,o),
(188,266,c),
(156,294,o),
(129,327,o),
(109,364,c),
(106,367,o),
(109,372,o),
(112,373,c)
);
},
{
closed = 1;
nodes = (
(122,617,o),
(167,622,o),
(181,590,c),
(187,580,o),
(189,567,o),
(186,557,c),
(179,537,o),
(167,526,o),
(150,520,c),
(110,515,o),
(82,566,o),
(105,593,c)
);
}
);
width = 633;
},
{
layerId = "CE1FC1EA-F01D-4D6B-B303-7D1D353E5BAE";
shapes = (
{
closed = 1;
nodes = (
(155,492,o),
(228,583,o),
(348,589,c),
(416,593,o),
(507,559,o),
(568,489,c),
(581,500,o),
(597,513,o),
(615,528,c),
(621,533,o),
(665,565,o),
(665,565,cs),
(584,675,o),
(499,707,o),
(373,711,cs),
(370,711,o),
(181,700,o),
(88,581,c),
(62,549,o),
(36,510,o),
(14,444,c),
(10,415,o),
(7,408,o),
(7,373,c),
(6,341,o),
(5,309,o),
(11,278,c),
(13,268,o),
(14,258,o),
(17,249,c),
(20,235,o),
(26,222,o),
(32,210,c),
(100,32,o),
(273,-12,o),
(360,-12,c),
(434,-12,o),
(506,19,o),
(544,59,c),
(544,41,o),
(544,17,o),
(544,4,c),
(544,1,o),
(544,0,o),
(544,0,c),
(661,0,l),
(661,0,o),
(661,11,o),
(661,23,c),
(661,236,l),
(661,317,l),
(661,329,o),
(661,357,o),
(661,357,c),
(265,357,l),
(265,357,o),
(265,348,o),
(265,335,c),
(265,245,l),
(265,245,o),
(282,245,o),
(294,245,c),
(393,245,l),
(407,245,o),
(453,245,o),
(448,245,c),
(446,245,o),
(539,245,o),
(538,245,c),
(521,143,o),
(475,115,o),
(346,111,c),
(243,111,o),
(199,166,o),
(171,202,c),
(140,245,o),
(127,268,o),
(127,329,c),
(123,349,o),
(131,379,o),
(134,393,c)
);
},
{
closed = 1;
nodes = (
(142,566,o),
(142,566,o),
(142,566,c),
(142,566,o),
(142,566,o),
(142,566,c),
(142,566,o),
(142,566,o),
(142,566,c),
(142,566,o),
(142,566,o),
(142,566,c)
);
}
);
width = 685;
},
{
associatedMasterId = "CE1FC1EA-F01D-4D6B-B303-7D1D353E5BAE";
layerId = "6F8CDDCA-1F52-480C-80EE-E5A27B5D985B";
name = "Mar 8, 23, 19:00";
shapes = (
{
closed = 1;
nodes = (
(223,395,o),
(334,421,o),
(440,464,c),
(490,484,o),
(543,504,o),
(579,546,c),
(595,563,o),
(606,584,o),
(611,607,c),
(612,615,o),
(616,700,o),
(606,700,c),
(14,700,l),
(11,700,o),
(9,698,o),
(9,694,c),
(9,627,o),
(9,543,o),
(8,477,c),
(8,442,o),
(7,408,o),
(7,373,c),
(6,341,o),
(5,309,o),
(11,278,c),
(13,268,o),
(16,258,o),
(19,249,c),
(24,235,o),
(30,222,o),
(36,210,c),
(77,122,o),
(156,47,o),
(247,25,c),
(308,9,o),
(375,25,o),
(431,59,c),
(443,41,o),
(458,17,o),
(475,4,c),
(478,1,o),
(483,0,o),
(487,0,c),
(661,0,l),
(661,0,o),
(661,11,o),
(661,23,c),
(661,236,l),
(661,317,l),
(661,329,o),
(661,357,o),
(661,357,c),
(265,357,l),
(265,357,o),
(265,348,o),
(265,335,c),
(265,244,l),
(265,231,o),
(282,190,o),
(294,190,c),
(383,163,l),
(397,160,o),
(416,165,o),
(411,158,c),
(409,149,o),
(406,186,o),
(405,176,c),
(386,175,o),
(367,177,o),
(348,181,c),
(288,192,o),
(233,224,o),
(188,266,c),
(156,294,o),
(129,327,o),
(109,364,c),
(106,367,o),
(109,372,o),
(112,373,c)
);
},
{
closed = 1;
nodes = (
(122,617,o),
(167,622,o),
(181,590,c),
(187,580,o),
(189,567,o),
(186,557,c),
(179,537,o),
(167,526,o),
(150,520,c),
(110,515,o),
(82,566,o),
(105,593,c)
);
},
{
closed = 1;
nodes = (
(431,-10,o),
(495,14,o),
(542,59,c),
(542,0,l),
(661,0,l),
(661,357,l),
(265,357,l),
(265,244,l),
(542,244,l),
(530,160,o),
(467,107,o),
(363,107,cs),
(241,107,o),
(138,201,o),
(138,351,cs),
(138,499,o),
(249,593,o),
(365,593,cs),
(456,593,o),
(520,553,o),
(568,487,c),
(663,564,l),
(593,661,o),
(492,710,o),
(366,710,cs),
(186,710,o),
(15,567,o),
(15,351,cs),
(15,133,o),
(178,-10,o),
(351,-10,cs)
);
}
);
visible = 1;
width = 600;
}
);
unicode = (71,103);
},
{
glyphname = H;
lastChange = "2023-03-21 13:00:53 +0000";
layers = (
{
layerId = m01;
shapes = (
{
closed = 1;
nodes = (
(516,702,o),
(457,704,o),
(439,670,c),
(424,640,o),
(433,601,o),
(428,568,c),
(416,493,o),
(391,407,o),
(309,394,c),
(309,414,o),
(309,434,o),
(309,455,c),
(310,504,o),
(310,553,o),
(310,601,c),
(310,641,o),
(324,688,o),
(271,697,c),
(240,702,o),
(180,704,o),
(163,670,c),
(147,640,o),
(156,601,o),
(151,568,c),
(140,496,o),
(116,412,o),
(39,395,c),
(28,392,o),
(20,383,o),
(20,371,c),
(20,341,o),
(20,312,o),
(20,282,c),
(19,270,o),
(28,260,o),
(40,258,c),
(78,251,o),
(112,222,o),
(131,187,c),
(153,149,o),
(161,105,o),
(168,62,c),
(173,35,o),
(172,4,o),
(207,1,c),
(230,-1,o),
(254,0,o),
(277,3,c),
(296,5,o),
(302,13,o),
(303,31,c),
(303,33,o),
(303,34,o),
(303,36,c),
(304,111,o),
(305,185,o),
(307,260,c),
(349,256,o),
(387,225,o),
(408,187,c),
(430,149,o),
(437,105,o),
(445,62,c),
(449,35,o),
(449,4,o),
(483,1,c),
(507,-1,o),
(531,0,o),
(554,3,c),
(573,5,o),
(579,13,o),
(579,31,c),
(579,33,o),
(579,34,o),
(579,36,c),
(582,176,o),
(585,315,o),
(586,455,c),
(587,504,o),
(587,553,o),
(587,601,c),
(587,641,o),
(601,688,o),
(548,697,c)
);
}
);
width = 620;
},
{
layerId = "CE1FC1EA-F01D-4D6B-B303-7D1D353E5BAE";
shapes = (
{
closed = 1;
nodes = (
(500,705,o),
(481,705,o),
(459,705,c),
(459,675,o),
(458,429,o),
(458,395,c),
(421,395,o),
(195,395,o),
(134,395,c),
(134,414,o),
(133,434,o),
(133,455,c),
(134,504,o),
(134,553,o),
(134,601,c),
(134,641,o),
(135,685,o),
(135,704,c),
(104,704,o),
(176,705,o),
(15,705,c),
(15,658,o),
(15,601,o),
(15,568,c),
(15,496,o),
(15,412,o),
(15,395,c),
(15,392,o),
(15,383,o),
(15,371,c),
(15,341,o),
(15,312,o),
(15,282,c),
(15,270,o),
(15,260,o),
(15,258,c),
(15,251,o),
(15,222,o),
(15,187,c),
(15,149,o),
(18,29,o),
(18,-14,c),
(33,-14,o),
(154,-15,o),
(169,-15,c),
(87,-15,o),
(111,-15,o),
(134,-15,c),
(134,-15,o),
(134,-15,o),
(134,-15,c),
(134,-15,o),
(134,19,o),
(134,21,c),
(134,51,o),
(135,214,o),
(135,260,c),
(177,260,o),
(437,260,o),
(458,260,c),
(458,185,o),
(457,105,o),
(457,62,c),
(457,20,o),
(457,-11,o),
(457,-14,c),
(457,-16,o),
(544,-15,o),
(583,-15,c),
(583,-13,o),
(583,-2,o),
(583,16,c),
(583,18,o),
(583,19,o),
(583,21,c),
(583,161,o),
(583,315,o),
(583,455,c),
(583,504,o),
(583,553,o),
(583,601,c),
(583,641,o),
(585,705,o),
(585,705,c)
);
}
);
width = 605;
}
);
unicode = (72,104);
},
{
glyphname = I;
lastChange = "2023-03-21 13:00:53 +0000";
layers = (
{
layerId = m01;
shapes = (
{
closed = 1;
nodes = (
(84,7,o),
(99,7,o),
(114,7,c),
(135,7,o),
(154,7,o),
(174,7,c),
(182,7,o),
(203,6,o),
(209,12,c),
(215,19,o),
(216,32,o),
(217,42,c),
(218,67,o),
(222,92,o),
(230,114,c),
(242,147,o),
(260,178,o),
(259,216,c),
(258,263,o),
(227,298,o),
(226,345,c),
(226,375,o),
(238,399,o),
(246,425,c),
(252,442,o),
(255,462,o),
(255,481,c),
(254,499,o),
(250,528,o),
(243,543,c),
(241,547,o),
(239,549,o),
(235,549,c),
(45,549,l),
(39,548,o),
(35,548,o),
(35,535,c),
(35,535,o),
(35,535,o),
(35,534,c),
(43,504,o),
(54,479,o),
(64,455,c),
(65,449,o),
(67,443,o),
(68,436,c),
(69,426,o),
(66,416,o),
(62,408,c),
(55,392,o),
(45,382,o),
(36,365,c),
(28,350,o),
(22,324,o),
(26,302,c),
(27,290,o),
(32,281,o),
(36,273,c),
(46,257,o),
(58,245,o),
(67,229,c),
(71,223,o),
(75,215,o),
(76,204,c),
(76,193,o),
(74,183,o),
(71,176,c),
(67,167,o),
(64,163,o),
(59,157,c),
(46,140,o),
(34,115,o),
(26,85,c),
(23,75,o),
(21,64,o),
(20,50,c),
(19,38,o),
(21,24,o),
(25,15,c),
(34,-2,o),
(56,7,o),
(68,7,c)
);
},
{
closed = 1;
nodes = (
(133,534,o),
(146,534,o),
(152,543,c),
(247,677,l),
(255,689,o),
(246,704,o),
(233,704,c),
(46,704,l),
(32,704,o),
(24,689,o),
(32,677,c),
(126,543,l)
);
}
);
width = 279;
},
{
layerId = "CE1FC1EA-F01D-4D6B-B303-7D1D353E5BAE";
shapes = (
{
closed = 1;
nodes = (
(114,-2,o),
(56,-2,o),
(71,-2,c),
(92,-2,o),
(111,-2,o),
(131,-2,c),
(139,-2,o),
(106,-3,o),
(163,-3,c),
(163,-3,o),
(163,-3,o),
(163,-3,c),
(163,66,o),
(163,91,o),
(163,113,c),
(163,146,o),
(163,177,o),
(163,215,c),
(163,262,o),
(163,297,o),
(163,344,c),
(163,374,o),
(163,398,o),
(163,424,c),
(163,441,o),
(163,461,o),
(163,480,c),
(163,498,o),
(163,527,o),
(163,542,c),
(163,546,o),
(163,702,o),
(163,702,c),
(49,703,l),
(49,702,o),
(49,548,o),
(49,535,c),
(49,535,o),
(49,535,o),
(49,534,c),
(49,504,o),
(49,479,o),
(49,455,c),
(49,449,o),
(49,443,o),
(49,436,c),
(49,426,o),
(49,416,o),
(49,408,c),
(49,392,o),
(49,382,o),
(49,365,c),
(49,350,o),
(49,324,o),
(49,302,c),
(49,290,o),
(49,281,o),
(49,273,c),
(49,257,o),
(49,245,o),
(49,229,c),
(49,223,o),
(49,215,o),
(49,204,c),
(49,193,o),
(49,183,o),
(49,176,c),
(49,167,o),
(49,163,o),
(49,157,c),
(49,140,o),
(49,115,o),
(49,85,c),
(49,75,o),
(49,64,o),
(49,-2,c),
(49,-2,o),
(49,-2,o),
(49,-2,c),
(49,-2,o),
(49,-2,o),
(49,-2,c)
);
},
{
closed = 1;
nodes = (
(99,556,o),
(99,556,o),
(99,556,c),
(99,557,l),
(99,557,o),
(99,557,o),
(99,557,c),
(98,557,l),
(98,557,o),
(98,557,o),
(98,557,c),
(99,556,l)
);
}
);
width = 213;
}
);
unicode = (73,105);
},
{
glyphname = J;
lastChange = "2023-03-21 13:00:53 +0000";
layers = (
{
layerId = m01;
shapes = (
{
closed = 1;
nodes = (
(289,-12,o),
(291,-12,o),
(293,-12,c),
(333,-13,o),
(376,-5,o),
(407,22,c),
(435,45,o),
(449,80,o),
(458,114,c),
(466,147,o),
(480,187,o),
(479,221,c),
(478,268,o),
(447,303,o),
(446,350,c),
(446,380,o),
(458,404,o),
(466,430,c),
(472,446,o),
(475,466,o),
(475,485,c),
(475,485,o),
(475,486,o),
(475,487,c),
(474,505,o),
(470,533,o),
(463,548,c),
(461,552,o),
(459,554,o),
(455,554,c),
(268,554,l),
(266,554,o),
(264,554,o),
(262,553,c),
(258,552,o),
(255,550,o),
(255,540,c),
(255,539,l),
(263,510,o),
(273,486,o),
(283,462,c),
(284,461,o),
(284,459,o),
(285,457,c),
(286,452,o),
(287,447,o),
(288,441,c),
(289,431,o),
(286,421,o),
(282,413,c),
(275,397,o),
(265,387,o),
(256,370,c),
(230,320,o),
(254,282,o),
(283,242,c),
(301,217,o),
(300,193,o),
(294,167,c),
(288,144,o),
(259,137,o),
(244,155,c),
(228,174,o),
(217,198,o),
(213,222,c),
(211,236,o),
(198,247,o),
(184,246,c),
(154,246,o),
(123,245,o),
(93,245,c),
(79,245,o),
(67,234,o),
(65,219,c),
(59,163,o),
(80,105,o),
(118,63,c),
(161,17,o),
(224,-9,o),
(287,-12,c)
);
},
{
closed = 1;
nodes = (
(346,548,l),
(353,539,o),
(366,539,o),
(372,548,c),
(467,682,l),
(475,694,o),
(466,709,o),
(453,709,c),
(266,709,l),
(252,709,o),
(244,694,o),
(252,682,c)
);
}
);
width = 509;
},
{
layerId = "CE1FC1EA-F01D-4D6B-B303-7D1D353E5BAE";
shapes = (
{
closed = 1;
nodes = (
(190,-12,o),
(192,-12,o),
(194,-12,c),
(234,-13,o),
(308,14,o),
(339,44,c),
(373,85,o),
(372,87,o),
(381,114,c),
(383,147,o),
(381,187,o),
(381,221,c),
(381,268,o),
(381,303,o),
(381,350,c),
(381,380,o),
(381,404,o),
(381,430,c),
(381,446,o),
(381,466,o),
(381,485,c),
(381,485,o),
(381,486,o),
(381,487,c),
(381,505,o),
(381,533,o),
(381,548,c),
(381,552,o),
(381,701,o),
(381,701,c),
(265,701,l),
(265,701,o),
(265,554,o),
(265,553,c),
(265,552,o),
(265,550,o),
(265,540,c),
(265,539,l),
(265,510,o),
(265,486,o),
(265,462,c),
(265,461,o),
(265,459,o),
(265,457,c),
(265,452,o),
(265,447,o),
(265,441,c),
(265,431,o),
(265,421,o),
(265,413,c),
(265,397,o),
(265,387,o),
(265,370,c),
(265,316,o),
(265,282,o),
(265,242,c),
(265,217,o),
(265,202,o),
(265,167,c),
(260,106,o),
(177,58,o),
(135,135,c),
(111,187,o),
(118,237,o),
(118,272,c),
(116,272,o),
(118,272,o),
(104,272,c),
(74,272,o),
(59,272,o),
(29,272,c),
(15,272,o),
(3,272,o),
(1,272,c),
(1,202,o),
(4,124,o),
(32,71,c),
(69,11,o),
(125,-9,o),
(188,-12,c)
);
},
{
closed = 1;
nodes = (
(326,587,l),
(326,587,o),
(327,587,o),
(327,587,c),
(327,588,l),
(327,588,o),
(327,588,o),
(327,588,c),
(326,588,l),
(326,588,o),
(326,588,o),
(326,588,c)
);
}
);
width = 402;
}
);
unicode = (74,106);
},
{
glyphname = K;
lastChange = "2023-03-21 13:00:53 +0000";
layers = (
{
layerId = m01;
shapes = (
{
closed = 1;
nodes = (
(49,-23,o),
(131,-1,o),
(139,4,c),
(170,21,o),
(193,49,o),
(211,79,c),
(217,90,o),
(222,110,o),
(234,116,c),
(246,121,o),
(260,114,o),
(262,101,c),
(268,73,o),
(268,6,o),
(300,-7,c),
(309,-10,o),
(319,-10,o),
(329,-10,c),
(397,-9,o),
(465,-9,o),
(533,-7,c),
(557,-6,o),
(541,12,o),
(537,26,c),
(520,82,o),
(480,127,o),
(440,168,c),
(410,198,o),
(378,225,o),
(344,250,c),
(338,254,o),
(332,259,o),
(327,263,c),
(311,274,o),
(319,298,o),
(338,299,c),
(339,299,l),
(430,302,l),
(442,303,o),
(451,314,o),
(449,326,c),
(439,387,o),
(435,449,o),
(439,512,c),
(439,521,o),
(446,528,o),
(455,530,c),
(533,546,l),
(543,548,o),
(550,557,o),
(549,567,c),
(541,690,l),
(540,700,o),
(532,708,o),
(522,709,c),
(226,727,l),
(216,728,o),
(207,721,o),
(205,711,c),
(201,686,o),
(198,660,o),
(194,634,c),
(192,624,o),
(186,614,o),
(176,613,c),
(171,612,o),
(167,614,o),
(162,616,c),
(143,623,o),
(86,659,o),
(74,627,c),
(61,592,o),
(64,551,o),
(81,518,c),
(96,487,o),
(123,463,o),
(155,451,c),
(168,446,o),
(172,429,o),
(163,419,c),
(131,384,o),
(101,346,o),
(67,312,c),
(43,287,o),
(44,261,o),
(43,228,c),
(39,148,o),
(49,67,o),
(49,-14,c)
);
},
{
closed = 1;
nodes = (
(279,607,o),
(307,658,o),
(347,653,c),
(364,647,o),
(376,636,o),
(383,616,c),
(386,606,o),
(384,593,o),
(378,583,c),
(364,551,o),
(319,556,o),
(302,580,c)
);
}
);
width = 600;
},
{
layerId = "CE1FC1EA-F01D-4D6B-B303-7D1D353E5BAE";
shapes = (
{
closed = 1;
nodes = (
(43,-14,o),
(159,-13,o),
(171,-13,c),
(172,15,o),
(172,58,o),
(172,127,c),
(172,146,o),
(172,156,o),
(172,171,c),
(185,182,o),
(265,208,o),
(328,174,c),
(369,156,o),
(415,102,o),
(418,-19,c),
(435,-19,o),
(491,-19,o),
(501,-19,c),
(579,-19,o),
(504,-19,o),
(572,-19,c),
(568,0,o),
(564,40,o),
(558,67,c),
(542,126,o),
(552,110,o),
(514,174,c),
(489,210,o),
(461,239,o),
(446,252,c),
(444,255,o),
(418,275,o),
(403,284,c),
(386,295,o),
(350,305,o),
(337,307,c),
(314,311,l),
(340,352,l),
(361,385,o),
(378,412,o),
(385,420,c),
(397,438,o),
(405,448,o),
(437,492,c),
(443,501,o),
(489,568,o),
(489,570,c),
(545,661,l),
(502,679,o),
(476,690,o),
(447,703,c),
(390,616,ls),
(379,599,o),
(166,307,o),
(166,312,c),
(166,704,l),
(166,704,o),
(166,704,o),
(166,704,c),
(166,704,o),
(166,704,o),
(166,704,c),
(166,704,o),
(166,704,o),
(166,704,c),
(166,704,o),
(116,705,o),
(110,705,c),
(91,705,o),
(75,705,o),
(43,705,c),
(43,690,o),
(43,556,o),
(43,516,c),
(43,483,o),
(43,497,o),
(43,455,c),
(43,438,o),
(43,432,o),
(43,419,c),
(43,384,o),
(43,381,o),
(43,318,c),
(43,280,o),
(43,261,o),
(43,228,c),
(43,148,o),
(43,67,o),
(43,-14,c)
);
},
{
closed = 1;
nodes = (
(359,571,o),
(359,570,o),
(359,570,c),
(359,570,o),
(358,571,o),
(358,571,c),
(358,571,o),
(358,571,o),
(358,571,c),
(359,571,o),
(359,571,o),
(359,571,c)
);
}
);
width = 587;
}
);
unicode = (75,107);
},
{
glyphname = L;
lastChange = "2023-03-21 13:00:53 +0000";
layers = (
{
layerId = m01;
shapes = (
{
closed = 1;
nodes = (
(355,655,o),
(347,638,o),
(339,623,c),
(302,554,o),
(255,490,o),
(225,416,c),
(213,387,o),
(202,353,o),
(207,320,c),
(215,276,o),
(249,241,o),
(285,213,c),
(349,163,o),
(427,144,o),
(485,84,c),
(491,78,o),
(497,71,o),
(499,63,c),
(504,48,o),
(495,32,o),
(483,21,c),
(461,-1,o),
(428,-12,o),
(397,-7,c),
(369,-3,o),
(348,14,o),
(324,27,c),
(297,41,o),
(270,56,o),
(244,71,c),
(188,105,o),
(136,139,o),
(87,179,c),
(60,202,o),
(33,230,o),
(24,266,c),
(14,303,o),
(27,344,o),
(41,381,c),
(68,448,o),
(108,510,o),
(146,570,c),
(181,628,o),
(210,685,o),
(280,705,c),
(293,708,o),
(306,710,o),
(319,708,c),
(332,705,o),
(344,698,o),
(350,686,c),
(353,681,o),
(354,676,o),
(354,671,c)
);
},
{
closed = 1;
nodes = (
(312,293,o),
(294,310,o),
(283,340,c),
(279,355,o),
(282,375,o),
(291,390,c),
(312,438,o),
(379,430,o),
(404,394,c),
(439,354,o),
(397,277,o),
(337,284,c)
);
}
);
width = 520;
},
{
layerId = "CE1FC1EA-F01D-4D6B-B303-7D1D353E5BAE";
shapes = (
{
closed = 1;
nodes = (
(169,662,o),
(169,686,o),
(169,599,c),
(169,530,o),
(169,539,o),
(169,465,c),
(169,410,o),
(169,344,o),
(169,306,c),
(169,262,o),
(169,141,o),
(169,113,c),
(223,113,o),
(424,113,o),
(456,113,c),
(456,107,o),
(455,71,o),
(455,-7,c),
(455,48,o),
(455,32,o),
(455,-7,c),
(455,-1,o),
(455,-12,o),
(455,-7,c),
(455,-3,o),
(455,-10,o),
(455,-7,c),
(455,-7,o),
(455,-6,o),
(455,-7,c),
(226,-7,o),
(105,-7,o),
(37,-7,c),
(37,37,o),
(37,-7,o),
(37,266,c),
(37,303,o),
(37,344,o),
(37,381,c),
(37,448,o),
(37,510,o),
(37,570,c),
(37,710,o),
(37,669,o),
(37,710,c),
(50,710,o),
(169,710,o),
(169,710,c),
(169,710,o),
(169,710,o),
(169,710,c),
(169,710,o),
(169,662,o),
(169,662,c)
);
},
{
closed = 1;
nodes = (
(296,285,o),
(296,285,o),
(296,285,c),
(296,285,o),
(296,285,o),
(296,285,c),
(296,285,o),
(296,285,o),
(296,285,c),
(296,285,o),
(296,285,o),
(296,285,c)
);
}
);
width = 476;
}
);
unicode = (76,108);
},
{
glyphname = M;
lastChange = "2023-03-21 13:00:53 +0000";
layers = (
{
layerId = m01;
shapes = (
{
closed = 1;
nodes = (
(275,-146,o),
(230,-88,o),
(263,-50,c),
(275,-43,o),
(292,-32,o),
(308,-38,c),
(331,-50,o),
(348,-72,o),
(342,-94,c),
(338,-106,o),
(331,-117,o),
(318,-123,c)
);
},
{
closed = 1;
nodes = (
(574,-138,o),
(529,-133,o),
(512,-109,c),
(489,-82,o),
(517,-31,o),
(557,-36,c),
(574,-42,o),
(586,-53,o),
(593,-73,c),
(596,-83,o),
(594,-96,o),
(588,-106,c)
);
},
{
closed = 1;
nodes = (
(80,2,l),
(89,2,o),
(97,11,o),
(96,19,c),
(94,61,o),
(89,277,o),
(94,378,c),
(100,487,o),
(94,548,o),
(147,551,c),
(241,556,o),
(245,96,o),
(245,9,c),
(245,1,o),
(252,-7,o),
(261,-7,c),
(293,-7,l),
(300,-7,l),
(305,-7,l),
(337,-7,l),
(346,-7,o),
(353,1,o),
(353,9,c),
(353,96,o),
(357,556,o),
(452,551,c),
(504,548,o),
(498,487,o),
(504,378,c),
(509,277,o),
(504,61,o),
(502,19,c),
(502,11,o),
(509,2,o),
(519,2,c),
(582,2,l),
(591,2,o),
(598,9,o),
(598,19,c),
(598,19,o),
(597,315,o),
(592,500,c),
(587,685,o),
(508,722,o),
(414,715,c),
(365,711,o),
(333,630,o),
(315,566,c),
(311,550,o),
(287,550,o),
(283,566,c),
(265,630,o),
(233,711,o),
(183,715,c),
(90,722,o),
(11,685,o),
(6,500,c),
(1,315,o),
(0,19,o),
(0,19,c),
(0,9,o),
(7,2,o),
(16,2,c)
);
},
{
closed = 1;
nodes = (
(76,-128,o),
(31,-139,o),
(9,-111,c),
(-3,-94,o),
(-3,-72,o),
(9,-55,c),
(25,-32,o),
(65,-32,o),
(82,-53,c),
(90,-64,o),
(94,-78,o),
(89,-93,c)
);
}
);
width = 597;
},
{
layerId = "CE1FC1EA-F01D-4D6B-B303-7D1D353E5BAE";
shapes = (
{
closed = 1;
nodes = (
(326,-16,o),
(325,-16,o),
(326,-16,c),
(326,-16,o),
(326,-16,o),
(326,-16,c),
(327,-16,o),
(327,-16,o),
(327,-16,c),
(327,-16,o),
(327,-16,o),
(327,-16,c)
);
},
{
closed = 1;
nodes = (
(581,-16,o),
(581,-16,o),
(581,-16,c),
(581,-16,o),
(581,-16,o),
(581,-16,c),
(581,-16,o),
(581,-16,o),
(581,-16,c),
(581,-16,o),
(581,-16,o),
(581,-16,c)
);
},
{
closed = 1;
nodes = (
(133,-16,l),
(142,-16,o),
(150,-16,o),
(149,-16,c),
(147,52,o),
(142,266,o),
(147,367,c),
(153,476,o),
(138,566,o),
(177,582,c),
(271,587,o),
(275,87,o),
(275,-16,c),
(275,-16,o),
(282,-16,o),
(291,-16,c),
(323,-16,l),
(330,-16,l),
(335,-16,l),
(367,-16,l),
(376,-16,o),
(383,-16,o),
(383,-16,c),
(383,87,o),
(387,587,o),
(482,582,c),
(519,554,o),
(496,486,o),
(502,377,c),
(507,276,o),
(502,54,o),
(511,-16,c),
(511,-16,o),
(518,-16,o),
(528,-16,c),
(612,-16,l),
(621,-16,o),
(628,-16,o),
(628,-16,c),
(628,-16,o),
(627,306,o),
(622,491,c),
(617,676,o),
(581,724,o),
(487,717,c),
(438,713,o),
(363,640,o),
(345,576,c),
(341,560,o),
(317,560,o),
(313,576,c),
(295,640,o),
(228,713,o),
(178,717,c),
(85,724,o),
(41,676,o),
(36,491,c),
(31,306,o),
(30,-16,o),
(30,-16,c),
(30,-16,o),
(37,-16,o),
(46,-16,c)
);
},
{
closed = 1;
nodes = (
(73,-16,o),
(73,-16,o),
(73,-16,c),
(72,-16,o),
(72,-16,o),
(73,-16,c),
(73,-16,o),
(73,-16,o),
(73,-16,c),
(73,-16,o),
(73,-16,o),
(73,-16,c)
);
}
);
width = 648;
}
);
unicode = (77,109);
},
{
glyphname = N;
lastChange = "2023-03-21 13:00:53 +0000";
layers = (
{
layerId = m01;
shapes = (
{
closed = 1;
nodes = (
(593,94,o),
(589,177,o),
(589,238,c),
(589,664,l),
(589,680,o),
(576,693,o),
(560,693,c),
(347,693,l),
(277,693,l),
(63,693,l),
(47,693,o),
(34,680,o),
(34,664,c),
(34,238,l),
(34,177,o),
(30,94,o),
(20,28,c),
(20,25,o),
(19,21,o),
(20,17,c),
(21,2,o),
(28,-4,o),
(37,-6,c),
(41,-7,o),
(45,-7,o),
(49,-7,c),
(77,-7,o),
(88,-7,o),
(116,-7,c),
(123,-7,o),
(130,-7,o),
(136,-5,c),
(150,1,o),
(153,17,o),
(153,31,c),
(153,108,o),
(160,416,o),
(223,471,c),
(245,491,o),
(275,499,o),
(305,500,c),
(305,500,o),
(305,500,o),
(305,499,c),
(307,500,o),
(309,500,o),
(312,500,c),
(314,500,o),
(316,500,o),
(319,499,c),
(319,500,o),
(319,500,o),
(319,500,c),
(349,499,o),
(378,491,o),
(401,471,c),
(463,416,o),
(470,108,o),
(470,31,c),
(470,17,o),
(473,1,o),
(488,-5,c),
(494,-7,o),
(501,-7,o),
(508,-7,c),
(536,-7,o),
(546,-7,o),
(575,-7,c),
(579,-7,o),
(583,-7,o),
(586,-6,c),
(596,-4,o),
(603,2,o),
(604,17,c),
(604,21,o),
(604,25,o),
(603,28,c)
);
}
);
width = 629;
},
{
layerId = "CE1FC1EA-F01D-4D6B-B303-7D1D353E5BAE";
shapes = (
{
closed = 1;
nodes = (
(625,77,o),
(625,175,o),
(625,236,c),
(625,700,l),
(609,700,o),
(506,700,o),
(506,700,c),
(506,171,l),
(199,700,l),
(50,700,l),
(50,682,o),
(49,680,o),
(49,664,c),
(49,238,l),
(49,177,o),
(49,79,o),
(49,-4,c),
(49,-4,o),
(49,-4,o),
(49,-4,c),
(49,-4,o),
(49,-4,o),
(49,-4,c),
(49,-4,o),
(49,-4,o),
(49,-4,c),
(107,-4,o),
(118,-4,o),
(146,-4,c),
(153,-4,o),
(160,-4,o),
(166,-4,c),
(180,-4,o),
(169,-4,o),
(169,-4,c),
(169,93,o),
(169,466,o),
(169,529,c),
(180,510,o),
(283,332,o),
(298,306,c),
(298,306,o),
(298,306,o),
(298,306,c),
(299,304,o),
(300,302,o),
(302,300,c),
(303,298,o),
(304,296,o),
(305,294,c),
(305,294,o),
(305,294,o),
(305,294,c),
(320,268,o),
(335,242,o),
(346,222,c),
(390,149,o),
(408,111,o),
(476,-4,c),
(465,7,o),
(503,-4,o),
(518,-4,c),
(524,-4,o),
(531,-4,o),
(538,-4,c),
(566,-4,o),
(625,-4,o),
(625,-4,c),
(625,-4,o),
(625,-4,o),
(625,-4,c),
(625,-4,o),
(625,-4,o),
(625,-4,c),
(625,-4,o),
(625,-4,o),
(625,-4,c)
);
}
);
width = 654;
}
);
unicode = (78,110);
},
{
glyphname = O;
lastChange = "2023-03-21 13:00:53 +0000";
layers = (
{
layerId = m01;
shapes = (
{
closed = 1;
nodes = (
(223,477,l),
(214,758,l),
(215,768,o),
(227,771,o),
(233,763,c),
(349,528,l),
(620,694,l),
(629,698,o),
(637,688,o),
(633,680,c),
(473,426,l),
(569,435,l),
(580,436,o),
(585,422,o),
(575,416,c),
(493,368,l),
(626,335,l),
(637,332,o),
(637,316,o),
(626,314,c),
(505,297,l),
(595,107,l),
(598,97,o),
(588,90,o),
(580,95,c),
(425,178,l),
(408,-1,l),
(405,-10,o),
(392,-11,o),
(388,-2,c),
(317,179,l),
(240,55,l),
(234,46,o),
(221,49,o),
(220,59,c),
(210,179,l),
(45,60,l),
(35,55,o),
(26,66,o),
(32,75,c),
(129,227,l),
(49,273,l),
(40,274,o),
(37,286,o),
(44,292,c),
(161,389,l),
(41,491,l),
(32,495,o),
(35,510,o),
(45,510,c)
);
},
{
closed = 1;
nodes = (
(165,-27,o),
(120,-22,o),
(103,2,c),
(80,29,o),
(108,80,o),
(148,75,c),
(165,69,o),
(177,58,o),
(184,38,c),
(187,28,o),
(185,15,o),
(179,5,c)
);
},
{
closed = 1;
nodes = (
(413,589,o),
(368,594,o),
(351,618,c),
(328,645,o),
(356,696,o),
(396,691,c),
(413,685,o),
(425,674,o),
(432,654,c),
(435,644,o),
(433,631,o),
(427,621,c)
);
},
{
closed = 1;
nodes = (
(166,520,o),
(121,525,o),
(104,549,c),
(81,576,o),
(109,627,o),
(149,622,c),
(166,616,o),
(178,605,o),
(185,585,c),
(188,575,o),
(186,562,o),
(180,552,c)
);
},
{
closed = 1;
nodes = (
(515,-9,o),
(470,-4,o),
(453,20,c),
(430,47,o),
(458,98,o),
(498,93,c),
(515,87,o),
(527,76,o),
(534,56,c),
(537,46,o),
(535,33,o),
(529,23,c)
);
}
);
width = 654;
},
{
layerId = "CE1FC1EA-F01D-4D6B-B303-7D1D353E5BAE";
shapes = (
{
closed = 1;
nodes = (
(429,343,l),
(429,343,l),
(429,343,o),
(429,343,o),
(429,343,c),
(429,343,l),
(429,343,l),
(429,343,o),
(429,343,o),
(429,343,c),
(429,343,l),
(429,343,l),
(429,343,o),
(429,343,o),
(429,343,c),
(429,343,l),
(429,343,l),
(429,343,o),
(429,343,o),
(429,343,c),
(429,343,l),
(429,343,l),
(429,343,o),
(429,343,o),
(429,343,c),
(429,343,l),
(429,343,l),
(429,343,o),
(429,343,o),
(429,343,c),
(429,343,l),
(429,343,l),
(429,343,o),
(429,343,o),
(429,343,c),
(429,343,l),
(429,343,l),
(429,343,o),
(429,343,o),
(429,343,c),
(429,343,l),
(429,343,l),
(429,343,o),
(429,343,o),
(429,343,c),
(429,343,l),
(429,343,l),
(429,343,o),
(429,343,o),
(429,343,c)
);
},
{
closed = 1;
nodes = (
(188,-4,o),
(20,138,o),
(20,356,c),
(70,356,o),
(107,356,o),
(143,356,c),
(143,206,o),
(252,113,o),
(376,113,c),
(376,98,o),
(376,83,o),
(376,-4,c)
);
},
{
closed = 1;
nodes = (
(609,504,o),
(499,599,o),
(376,599,c),
(376,644,o),
(376,686,o),
(376,716,c),
(563,716,o),
(732,572,o),
(732,356,c),
(660,356,o),
(647,356,o),
(609,356,c)
);
},
{
closed = 1;
nodes = (
(107,356,o),
(51,356,o),
(20,356,c),
(27,678,o),
(301,716,o),
(376,716,c),
(376,693,o),
(376,624,o),
(376,599,c),
(246,596,o),
(143,504,o),
(143,356,c)
);
},
{
closed = 1;
nodes = (
(732,138,o),
(563,-4,o),
(376,-4,c),
(376,37,o),
(376,77,o),
(376,113,c),
(499,113,o),
(609,206,o),
(609,356,c),
(647,356,o),
(696,356,o),
(732,356,c)
);
}
);
width = 732;
}
);
unicode = (79,111);
},
{
glyphname = P;
lastChange = "2023-03-21 13:00:53 +0000";
layers = (
{
layerId = m01;
shapes = (
{
closed = 1;
nodes = (
(256,438,o),
(211,443,o),
(194,467,c),
(171,494,o),
(199,545,o),
(239,540,c),
(266,532,o),
(288,497,o),
(270,470,c)
);
},
{
closed = 1;
nodes = (
(465,439,o),
(470,441,o),
(476,443,c),
(511,457,o),
(544,482,o),
(557,518,c),
(570,552,o),
(565,593,o),
(543,623,c),
(538,630,o),
(533,636,o),
(527,641,c),
(508,658,o),
(483,668,o),
(458,676,c),
(365,704,o),
(266,706,o),
(169,706,c),
(132,706,o),
(94,705,o),
(57,705,c),
(41,705,o),
(22,703,o),
(14,688,c),
(11,681,o),
(11,672,o),
(12,664,c),
(70,42,l),
(71,31,o),
(72,20,o),
(78,11,c),
(88,-8,o),
(111,-4,o),
(129,-4,c),
(153,-4,o),
(177,-4,o),
(202,-4,c),
(214,-4,o),
(227,-4,o),
(236,4,c),
(249,16,o),
(246,38,o),
(242,55,c),
(233,91,o),
(224,127,o),
(216,162,c),
(211,182,o),
(206,202,o),
(207,222,c),
(208,242,o),
(216,263,o),
(233,274,c),
(249,286,o),
(275,286,o),
(288,270,c),
(295,262,o),
(297,250,o),
(301,240,c),
(314,201,o),
(350,169,o),
(391,167,c),
(426,165,o),
(457,186,o),
(474,215,c),
(495,250,o),
(495,290,o),
(475,325,c),
(465,343,o),
(451,359,o),
(441,377,c),
(435,388,o),
(430,401,o),
(434,413,c),
(437,421,o),
(444,428,o),
(451,432,c),
(454,434,o),
(457,435,o),
(460,437,c)
);
}
);
width = 594;
},
{
layerId = "CE1FC1EA-F01D-4D6B-B303-7D1D353E5BAE";
shapes = (
{
closed = 1;
nodes = (
(375,359,o),
(190,390,o),
(140,390,c),
(138,437,o),
(138,521,o),
(138,587,c),
(213,584,o),
(373,615,o),
(375,487,c)
);
},
{
closed = 1;
nodes = (
(498,463,o),
(502,474,o),
(503,481,c),
(504,496,o),
(505,494,o),
(506,514,c),
(503,548,o),
(497,574,o),
(484,604,c),
(477,613,o),
(456,653,o),
(433,664,c),
(406,676,o),
(368,688,o),
(317,696,c),
(225,705,o),
(220,706,o),
(123,706,c),
(86,706,o),
(20,705,o),
(20,705,c),
(20,705,o),
(20,703,o),
(20,688,c),
(20,681,o),
(20,672,o),
(20,664,c),
(20,42,l),
(20,31,o),
(20,20,o),
(20,11,c),
(20,-8,o),
(20,-4,o),
(83,-4,c),
(107,-4,o),
(131,-4,o),
(131,-4,c),
(131,-4,o),
(137,-4,o),
(137,4,c),
(137,16,o),
(137,38,o),
(137,55,c),
(137,91,o),
(137,127,o),
(137,162,c),
(137,182,o),
(137,202,o),
(137,222,c),
(137,242,o),
(137,268,o),
(137,279,c),
(173,279,o),
(214,279,o),
(227,279,c),
(234,279,o),
(251,279,o),
(255,279,c),
(268,279,o),
(279,276,o),
(317,281,c),
(352,290,o),
(389,301,o),
(412,315,c),
(433,335,o),
(437,333,o),
(454,359,cs),
(466,377,o),
(468,375,o),
(477,394,c),
(485,413,o),
(484,412,o),
(488,424,c),
(491,431,o),
(490,430,o),
(493,439,c),
(496,449,o),
(496,451,o),
(496,456,c)
);
}
);
width = 526;
},
{
associatedMasterId = "CE1FC1EA-F01D-4D6B-B303-7D1D353E5BAE";
layerId = "352E6949-7372-45FC-9DA6-ACF399EF7B40";
name = "Mar 7, 23, 19:53";
shapes = (
{
closed = 1;
nodes = (
(407,364,o),
(228,392,o),
(169,392,c),
(169,419,o),
(169,592,o),
(169,587,c),
(257,587,o),
(393,623,o),
(407,490,c)
);
},
{
closed = 1;
nodes = (
(50,0,l),
(169,0,l),
(169,279,l),
(309,279,ls),
(456,279,o),
(530,384,o),
(530,490,cs),
(530,595,o),
(456,700,o),
(309,700,cs),
(50,700,l)
);
},
{
closed = 1;
nodes = (
(169,392,l),
(169,587,l),
(310,587,ls),
(375,587,o),
(407,538,o),
(407,490,cs),
(407,441,o),
(375,392,o),
(310,392,cs)
);
}
);
visible = 1;
width = 467;
}
);
unicode = (80,112);
},
{
glyphname = Q;
lastChange = "2023-03-21 13:00:53 +0000";
layers = (
{
layerId = m01;
shapes = (
{
closed = 1;
nodes = (
(461,242,l),
(483,276,o),
(502,312,o),
(517,350,c),
(475,459,o),
(399,553,o),
(302,617,c),
(205,680,o),
(87,712,o),
(-29,706,c),
(-29,624,o),
(-29,541,o),
(-29,459,c),
(-29,241,l),
(-29,159,o),
(-29,76,o),
(-29,-6,c),
(87,-12,o),
(205,20,o),
(302,83,c),
(304,85,o),
(307,86,o),
(310,88,c),
(322,57,o),
(340,28,o),
(365,6,c),
(547,188,l),
(525,214,o),
(496,233,o),
(463,244,c)
);
},
{
closed = 1;
nodes = (
(306,227,o),
(286,216,o),
(257,216,c),
(228,216,o),
(208,227,o),
(192,245,c),
(166,293,o),
(212,352,o),
(257,346,c),
(257,346,l),
(257,346,o),
(257,346,o),
(257,346,c),
(257,346,o),
(257,346,o),
(257,346,c),
(257,346,l),
(302,352,o),
(348,293,o),
(322,245,c)
);
},
{
closed = 1;
nodes = (
(377,188,l),
(467,188,l),
(467,216,l),
(377,216,l)
);
}
);
width = 566;
},
{
layerId = "CE1FC1EA-F01D-4D6B-B303-7D1D353E5BAE";
shapes = (
{
closed = 1;
nodes = (
(467,298,l),
(469,333,o),
(469,318,o),
(471,356,c),
(470,565,o),
(314,705,o),
(127,705,c),
(61,705,o),
(-5,691,o),
(-77,650,cs),
(-146,611,o),
(-242,493,o),
(-242,349,c),
(-237,277,l),
(-186,7,o),
(77,-11,o),
(114,-11,c),
(217,0,o),
(238,7,o),
(309,44,c),
(401,106,o),
(430,183,o),
(433,185,c),
(443,150,o),
(467,62,o),
(485,-1,c),
(604,-1,l),
(589,56,o),
(528,267,o),
(520,298,c)
);
},
{
closed = 1;
nodes = (
(346,220,o),
(277,102,o),
(113,102,c),
(-11,102,o),
(-120,195,o),
(-120,345,c),
(-120,493,o),
(-11,588,o),
(115,589,c),
(115,589,l),
(115,589,o),
(115,589,o),
(115,589,c),
(115,589,o),
(115,589,o),
(115,589,c),
(115,589,l),
(236,588,o),
(346,493,o),
(346,345,c)
);
},
{
closed = 1;
nodes = (
(102,188,l),
(467,188,l),
(467,301,l),
(102,301,l)
);
}
);
width = 600;
}
);
unicode = (81,113);
},
{
glyphname = R;
lastChange = "2023-03-21 13:00:53 +0000";
layers = (
{
layerId = m01;
shapes = (
{
closed = 1;
nodes = (
(22,-8,o),
(103,5,o),
(109,8,c),
(135,18,o),
(155,43,o),
(173,64,c),
(202,97,o),
(219,142,o),
(216,186,c),
(254,118,o),
(236,69,o),
(274,1,c),
(356,-2,o),
(450,5,o),
(532,1,c),
(511,83,o),
(443,168,o),
(381,221,c),
(334,263,o),
(298,299,o),
(214,303,c),
(268,315,o),
(322,329,o),
(372,353,c),
(422,377,o),
(467,413,o),
(493,462,c),
(511,497,o),
(519,538,o),
(520,578,c),
(520,618,o),
(515,658,o),
(510,697,c),
(22,700,l),
(18,699,o),
(22,0,o),
(22,0,c)
);
},
{
closed = 1;
nodes = (
(141,442,l),
(141,442,l),
(141,442,ls),
(141,442,o),
(141,442,o),
(141,442,cs),
(141,442,o),
(141,442,o),
(141,442,cs)
);
}
);
width = 552;
},
{
layerId = "CE1FC1EA-F01D-4D6B-B303-7D1D353E5BAE";
shapes = (
{
closed = 1;
nodes = (
(15,-15,o),
(128,-15,o),
(128,-15,c),
(128,-15,o),
(128,45,o),
(128,66,c),
(128,104,o),
(128,165,o),
(128,215,c),
(128,215,o),
(418,218,o),
(435,-14,c),
(517,-14,o),
(525,-14,o),
(526,-14,c),
(515,70,o),
(530,185,o),
(415,251,c),
(288,315,o),
(241,303,o),
(222,303,c),
(276,318,o),
(344,323,o),
(394,347,c),
(444,371,o),
(482,411,o),
(495,462,cs),
(506,504,o),
(500,537,o),
(501,577,c),
(501,617,o),
(500,703,o),
(334,704,c),
(18,705,l),
(18,705,o),
(15,-15,o),
(15,-15,c)
);
},
{
closed = 1;
nodes = (
(138,442,l),
(138,587,l),
(286,587,ls),
(340,587,o),
(367,551,o),
(367,515,cs),
(367,478,o),
(340,442,o),
(286,442,cs)
);
}
);
width = 546;
},
{
associatedMasterId = "CE1FC1EA-F01D-4D6B-B303-7D1D353E5BAE";
layerId = "7E508D23-E95B-428F-A84E-81B4C7146CA4";
name = "Mar 3, 23, 17:45";
shapes = (
{
closed = 1;
nodes = (
(58,-13,o),
(131,5,o),
(137,8,c),
(163,18,o),
(183,43,o),
(201,64,c),
(230,97,o),
(247,142,o),
(244,186,c),
(282,118,o),
(264,69,o),
(302,1,c),
(384,-2,o),
(478,5,o),
(560,1,c),
(539,83,o),
(467,164,o),
(402,217,c),
(337,270,o),
(326,299,o),
(242,303,c),
(296,315,o),
(350,329,o),
(400,353,c),
(450,377,o),
(495,413,o),
(521,462,c),
(539,497,o),
(547,538,o),
(548,578,c),
(548,618,o),
(543,658,o),
(538,697,c),
(54,701,l),
(54,701,o),
(58,-5,o),
(58,-5,c)
);
},
{
closed = 1;
nodes = (
(169,442,l),
(169,587,l),
(327,587,ls),
(381,587,o),
(408,551,o),
(408,515,cs),
(408,478,o),
(381,442,o),
(327,442,cs)
);
},
{
closed = 1;
nodes = (
(50,0,l),
(169,0,l),
(169,186,l),
(385,186,l),
(437,0,l),
(556,0,l),
(472,299,l),
(169,299,l),
(169,329,l),
(326,329,ls),
(463,329,o),
(531,422,o),
(531,515,cs),
(531,607,o),
(463,700,o),
(326,700,cs),
(50,700,l)
);
}
);
visible = 1;
width = 600;
}
);
unicode = (82,114);
},
{
glyphname = S;
lastChange = "2023-03-21 13:00:53 +0000";
layers = (
{
layerId = m01;
shapes = (
{
closed = 1;
nodes = (
(459,357,o),
(363,399,o),
(293,410,c),
(284,411,o),
(276,420,o),
(276,429,c),
(276,440,o),
(276,450,o),
(276,461,c),
(276,469,o),
(276,477,o),
(276,485,c),
(276,515,l),
(276,565,l),
(276,616,l),
(276,661,l),
(276,690,l),
(276,703,o),
(265,712,o),
(253,710,c),
(199,710,o),
(107,714,o),
(59,654,c),
(14,592,o),
(8,481,o),
(42,413,c),
(73,350,o),
(190,305,o),
(259,295,c),
(269,293,o),
(276,285,o),
(276,275,c),
(276,259,o),
(276,244,o),
(276,228,c),
(276,220,o),
(276,213,o),
(276,205,c),
(276,168,l),
(276,144,l),
(276,110,l),
(276,73,l),
(276,14,l),
(276,2,o),
(288,-7,o),
(300,-5,c),
(353,4,o),
(443,36,o),
(474,78,c),
(519,139,o),
(525,226,o),
(491,294,c)
);
},
{
closed = 1;
nodes = (
(187,480,o),
(142,485,o),
(125,509,c),
(102,536,o),
(130,587,o),
(170,582,c),
(187,576,o),
(199,565,o),
(206,545,c),
(209,535,o),
(207,522,o),
(201,512,c)
);
},
{
closed = 1;
nodes = (
(413,142,o),
(368,147,o),
(351,171,c),
(328,198,o),
(356,249,o),
(396,244,c),
(413,238,o),
(425,227,o),
(432,207,c),
(435,197,o),
(433,184,o),
(427,174,c)
);
}
);
width = 533;
},
{
layerId = "CE1FC1EA-F01D-4D6B-B303-7D1D353E5BAE";
shapes = (
{
closed = 1;
nodes = (
(382,334,o),
(263,404,o),
(223,422,c),
(170,449,o),
(140,475,o),
(149,524,cs),
(155,557,o),
(166,585,o),
(226,595,c),
(303,599,o),
(349,551,o),
(374,498,c),
(398,517,l),
(416,531,l),
(431,543,l),
(449,558,l),
(469,572,l),
(469,585,o),
(402,701,o),
(242,713,cs),
(218,715,o),
(159,712,o),
(93,661,c),
(20,600,o),
(18,491,o),
(48,420,c),
(79,357,o),
(149,317,o),
(215,287,c),
(274,264,o),
(296,243,o),
(314,205,c),
(324,174,o),
(321,158,o),
(300,131,c),
(215,61,o),
(130,148,o),
(93,201,c),
(75,187,l),
(50,166,l),
(32,152,l),
(14,139,l),
(4,131,l),
(60,42,o),
(129,-10,o),
(231,-10,c),
(296,-10,o),
(364,22,o),
(408,82,c),
(447,148,o),
(457,221,o),
(419,277,c)
);
},
{
closed = 1;
nodes = (
(144,531,o),
(144,531,o),
(144,531,c),
(144,531,o),
(144,531,o),
(144,531,c),
(144,531,o),
(144,531,o),
(144,531,c),
(144,531,o),
(144,531,o),
(144,531,c)
);
},
{
closed = 1;
nodes = (
(329,190,o),
(329,190,o),
(329,190,c),
(329,190,o),
(329,190,o),
(329,190,c),
(329,190,o),
(329,190,o),
(329,190,c),
(329,190,o),
(329,190,o),
(329,190,c)
);
}
);
width = 484;
},
{
associatedMasterId = "CE1FC1EA-F01D-4D6B-B303-7D1D353E5BAE";
layerId = "79AE9A7A-30F8-4DF3-A6F0-1EEE9FBE9FC7";
name = "Mar 7, 23, 19:07";
shapes = (
{
closed = 1;
nodes = (
(382,334,o),
(243,404,o),
(209,429,c),
(200,430,o),
(111,501,o),
(151,534,cs),
(226,595,l),
(284,608,l),
(303,641,l),
(311,655,l),
(318,669,l),
(324,679,l),
(330,690,l),
(330,703,o),
(319,712,o),
(307,710,c),
(253,701,o),
(112,680,o),
(64,620,c),
(21,559,o),
(18,491,o),
(48,420,c),
(79,357,o),
(159,336,o),
(221,295,c),
(231,293,o),
(296,243,o),
(314,205,c),
(324,174,o),
(321,158,o),
(300,131,c),
(215,61,o),
(124,148,o),
(100,207,c),
(75,187,l),
(50,166,l),
(32,152,l),
(14,139,l),
(4,131,l),
(60,42,o),
(129,-10,o),
(231,-10,c),
(284,-1,o),
(377,40,o),
(408,82,c),
(453,143,o),
(440,221,o),
(419,277,c)
);
},
{
closed = 1;
nodes = (
(169,474,o),
(169,474,o),
(169,474,c),
(169,474,o),
(169,474,o),
(169,474,c),
(169,474,o),
(169,474,o),
(169,474,c),
(169,474,o),
(169,474,o),
(169,474,c)
);
},
{
closed = 1;
nodes = (
(318,179,o),
(318,179,o),
(318,179,c),
(318,179,o),
(318,179,o),
(318,179,c),
(318,179,o),
(318,179,o),
(318,179,c),
(318,179,o),
(318,179,o),
(318,179,c)
);
},
{
closed = 1;
nodes = (
(357,-10,o),
(440,82,o),
(440,189,cs),
(440,285,o),
(371,341,o),
(309,375,cs),
(219,425,ls),
(177,448,o),
(151,474,o),
(151,515,cs),
(151,560,o),
(185,595,o),
(237,595,cs),
(291,595,o),
(343,551,o),
(374,498,c),
(469,573,l),
(416,657,o),
(338,710,o),
(239,710,cs),
(112,710,o),
(29,623,o),
(29,510,cs),
(29,411,o),
(89,351,o),
(157,317,cs),
(253,269,ls),
(301,245,o),
(318,215,o),
(318,181,cs),
(318,141,o),
(292,105,o),
(236,105,cs),
(186,105,o),
(133,144,o),
(100,207,c),
(5,132,l),
(60,42,o),
(134,-10,o),
(236,-10,cs)
);
}
);
width = 464;
}
);
unicode = (83,115);
},
{
glyphname = T;
lastChange = "2023-03-21 13:00:53 +0000";
layers = (
{
layerId = m01;
shapes = (
{
closed = 1;
nodes = (
(597,690,o),
(585,693,o),
(574,694,c),
(520,698,o),
(464,694,o),
(410,694,c),
(341,693,o),
(273,693,o),
(205,694,c),
(205,694,o),
(205,694,o),
(204,694,c),
(200,694,o),
(196,694,o),
(192,694,c),
(137,694,o),
(81,698,o),
(27,694,c),
(17,693,o),
(4,690,o),
(1,680,c),
(-1,675,o),
(1,670,o),
(2,665,c),
(19,613,o),
(57,571,o),
(96,535,c),
(117,515,o),
(141,497,o),
(166,481,c),
(176,475,o),
(186,469,o),
(196,464,c),
(205,459,o),
(217,457,o),
(225,451,c),
(239,441,o),
(226,428,o),
(217,420,c),
(194,399,o),
(137,379,o),
(159,337,c),
(165,325,o),
(177,317,o),
(188,311,c),
(202,304,o),
(215,297,o),
(229,290,c),
(243,284,o),
(259,282,o),
(271,273,c),
(282,266,o),
(281,255,o),
(279,244,c),
(272,210,o),
(260,179,o),
(250,146,c),
(240,111,o),
(232,75,o),
(229,38,c),
(228,29,o),
(226,20,o),
(226,10,c),
(226,-1,o),
(233,2,o),
(243,1,c),
(262,1,o),
(280,0,o),
(299,0,c),
(299,0,o),
(300,0,o),
(301,0,c),
(301,0,o),
(302,0,o),
(302,0,c),
(321,0,o),
(340,1,o),
(358,1,c),
(369,2,o),
(375,-1,o),
(375,10,c),
(375,20,o),
(374,29,o),
(373,38,c),
(369,75,o),
(362,111,o),
(351,146,c),
(341,179,o),
(329,210,o),
(323,244,c),
(321,255,o),
(319,266,o),
(330,273,c),
(343,282,o),
(359,284,o),
(372,290,c),
(386,297,o),
(400,304,o),
(413,311,c),
(425,317,o),
(437,325,o),
(443,337,c),
(464,379,o),
(408,399,o),
(384,420,c),
(375,428,o),
(363,441,o),
(376,451,c),
(384,457,o),
(396,459,o),
(405,464,c),
(415,469,o),
(426,475,o),
(435,481,c),
(460,497,o),
(484,515,o),
(506,535,c),
(545,571,o),
(582,613,o),
(599,665,c),
(601,670,o),
(602,675,o),
(600,680,c)
);
}
);
width = 601;
},
{
layerId = "CE1FC1EA-F01D-4D6B-B303-7D1D353E5BAE";
shapes = (
{
closed = 1;
nodes = (
(537,702,o),
(535,702,o),
(513,702,c),
(459,702,o),
(457,701,o),
(403,701,c),
(334,701,o),
(266,701,o),
(198,701,c),
(198,701,o),
(198,701,o),
(197,701,c),
(193,701,o),
(189,701,o),
(185,701,c),
(130,701,o),
(74,701,o),
(20,698,c),
(73,701,o),
(60,701,o),
(55,701,c),
(55,701,o),
(55,631,o),
(55,588,c),
(64,588,o),
(223,588,o),
(239,588,c),
(239,557,o),
(239,497,o),
(239,481,c),
(239,475,o),
(239,469,o),
(239,464,c),
(239,459,o),
(239,457,o),
(239,451,c),
(239,441,o),
(239,428,o),
(239,420,c),
(239,399,o),
(239,379,o),
(239,337,c),
(239,325,o),
(239,317,o),
(239,311,c),
(239,304,o),
(239,297,o),
(239,290,c),
(239,284,o),
(239,282,o),
(239,273,c),
(239,266,o),
(239,255,o),
(239,244,c),
(239,210,o),
(239,179,o),
(239,146,c),
(239,111,o),
(239,75,o),
(239,38,c),
(239,29,o),
(239,20,o),
(239,10,c),
(239,-1,o),
(239,2,o),
(239,1,c),
(239,1,o),
(239,0,o),
(239,0,c),
(239,0,o),
(239,0,o),
(239,0,c),
(239,0,o),
(239,0,o),
(239,0,c),
(273,1,o),
(359,1,o),
(359,1,c),
(359,2,o),
(359,-1,o),
(359,10,c),
(359,20,o),
(359,29,o),
(359,38,c),
(359,75,o),
(359,111,o),
(359,146,c),
(359,179,o),
(359,210,o),
(359,244,c),
(359,255,o),
(359,266,o),
(359,273,c),
(359,282,o),
(359,284,o),
(359,290,c),
(359,297,o),
(359,304,o),
(359,311,c),
(359,317,o),
(359,325,o),
(359,337,c),
(359,379,o),
(359,399,o),
(359,420,c),
(359,428,o),
(359,441,o),
(359,451,c),
(359,457,o),
(359,459,o),
(359,464,c),
(359,469,o),
(359,475,o),
(359,481,c),
(359,496,o),
(359,559,o),
(359,586,c),
(415,586,o),
(487,587,o),
(542,587,c),
(542,587,o),
(542,702,o),
(542,702,c)
);
}
);
width = 562;
}
);
unicode = (84,116);
},
{
glyphname = U;
lastChange = "2023-03-21 13:00:53 +0000";
layers = (
{
layerId = m01;
shapes = (
{
closed = 1;
nodes = (
(91,737,o),
(119,788,o),
(96,815,c),
(79,839,o),
(34,844,o),
(20,812,c),
(14,802,o),
(12,789,o),
(15,779,c),
(22,759,o),
(34,748,o),
(51,742,c)
);
},
{
closed = 1;
nodes = (
(284,748,o),
(296,759,o),
(303,779,c),
(306,789,o),
(304,802,o),
(298,812,c),
(284,844,o),
(239,839,o),
(222,815,c),
(199,788,o),
(227,737,o),
(267,742,c)
);
},
{
closed = 1;
nodes = (
(229,704,l),
(219,704,o),
(212,695,o),
(212,687,c),
(214,645,o),
(219,429,o),
(214,328,c),
(208,219,o),
(214,158,o),
(162,155,c),
(161,155,o),
(160,154,o),
(159,154,c),
(158,154,o),
(157,155,o),
(156,155,c),
(104,158,o),
(110,219,o),
(104,328,c),
(99,429,o),
(104,645,o),
(106,687,c),
(106,695,o),
(99,704,o),
(89,704,c),
(26,704,l),
(17,704,o),
(10,697,o),
(10,687,c),
(10,687,o),
(11,391,o),
(16,206,c),
(20,44,o),
(81,1,o),
(159,-3,c),
(237,1,o),
(298,44,o),
(302,206,c),
(307,391,o),
(308,687,o),
(308,687,c),
(308,697,o),
(301,704,o),
(292,704,c)
);
}
);
width = 328;
},
{
layerId = "CE1FC1EA-F01D-4D6B-B303-7D1D353E5BAE";
shapes = (
{
closed = 1;
nodes = (
(174,702,o),
(174,702,o),
(174,702,c),
(173,702,o),
(173,702,o),
(173,702,c),
(173,702,o),
(173,702,o),
(173,702,c),
(173,702,o),
(173,702,o),
(173,702,c)
);
},
{
closed = 1;
nodes = (
(175,702,o),
(175,702,o),
(175,702,c),
(175,702,o),
(175,702,o),
(175,702,c),
(175,702,o),
(174,702,o),
(174,702,c),
(174,702,o),
(174,702,o),
(175,702,c)
);
},
{
closed = 1;
nodes = (
(249,702,l),
(239,702,o),
(225,702,o),
(225,702,c),
(227,643,o),
(227,429,o),
(225,328,c),
(226,214,o),
(234,100,o),
(182,97,c),
(181,97,o),
(180,96,o),
(179,96,c),
(178,96,o),
(177,97,o),
(176,97,c),
(136,96,o),
(141,218,o),
(137,327,c),
(135,428,o),
(135,642,o),
(137,702,c),
(137,702,o),
(130,702,o),
(109,702,c),
(30,702,l),
(30,702,o),
(30,702,o),
(30,702,c),
(30,702,o),
(30,391,o),
(30,206,c),
(30,44,o),
(101,-16,o),
(179,-16,c),
(263,-12,o),
(328,44,o),
(328,206,c),
(328,391,o),
(328,702,o),
(328,702,c),
(328,702,o),
(328,702,o),
(312,702,c)
);
}
);
width = 348;
}
);
unicode = (85,117);
},
{
glyphname = V;
lastChange = "2023-03-21 13:00:53 +0000";
layers = (
{
layerId = m01;
shapes = (
{
closed = 1;
nodes = (
(151,417,o),
(185,439,o),
(207,492,c),
(231,553,o),
(254,617,o),
(273,680,c),
(275,687,o),
(277,693,o),
(275,699,c),
(273,708,o),
(264,715,o),
(255,716,c),
(245,717,o),
(236,715,o),
(226,712,c),
(165,696,o),
(103,680,o),
(42,664,c),
(24,659,o),
(4,650,o),
(0,635,c),
(-1,632,o),
(-1,630,o),
(-1,629,c),
(-1,619,o),
(5,610,o),
(11,603,c),
(43,558,o),
(75,514,o),
(109,470,c)
);
},
{
closed = 1;
nodes = (
(361,3,o),
(364,14,o),
(368,23,c),
(378,57,o),
(389,112,o),
(398,146,c),
(402,162,o),
(406,180,o),
(393,193,c),
(386,199,o),
(378,203,o),
(369,207,c),
(343,219,o),
(313,227,o),
(285,235,c),
(257,242,o),
(232,245,o),
(224,217,c),
(223,215,o),
(223,214,o),
(222,212,c),
(212,175,o),
(201,139,o),
(190,103,c),
(187,92,o),
(184,78,o),
(192,69,c),
(199,60,o),
(214,55,o),
(224,51,c),
(291,18,l),
(307,10,o),
(333,-9,o),
(351,-1,c)
);
},
{
closed = 1;
nodes = (
(272,248,o),
(299,279,o),
(312,331,c),
(317,356,o),
(309,389,o),
(290,412,c),
(247,489,o),
(136,464,o),
(100,400,c),
(49,326,o),
(133,205,o),
(231,229,c)
);
},
{
closed = 1;
nodes = (
(480,212,o),
(532,230,o),
(584,249,c),
(594,252,o),
(604,256,o),
(609,263,c),
(610,265,o),
(610,266,o),
(611,267,c),
(618,283,o),
(606,302,o),
(594,316,c),
(553,365,o),
(512,413,o),
(471,462,c),
(464,469,o),
(459,477,o),
(450,481,c),
(442,485,o),
(431,486,o),
(423,479,c),
(419,475,o),
(416,469,o),
(414,463,c),
(393,399,o),
(376,335,o),
(361,271,c),
(347,216,o),
(362,178,o),
(428,197,c)
);
},
{
closed = 1;
nodes = (
(540,504,o),
(571,538,o),
(584,596,c),
(590,625,o),
(580,660,o),
(562,686,c),
(513,769,o),
(390,743,o),
(350,671,c),
(294,590,o),
(386,458,o),
(497,482,c)
);
}
);
width = 707;
},
{
layerId = "CE1FC1EA-F01D-4D6B-B303-7D1D353E5BAE";
shapes = (
{
closed = 1;
nodes = (
(161,182,o),
(183,384,o),
(210,389,c),
(193,448,o),
(151,586,o),
(134,646,c),
(132,653,o),
(132,653,o),
(129,664,c),
(126,673,o),
(124,678,o),
(124,679,c),
(124,681,o),
(120,690,o),
(117,700,c),
(108,700,o),
(11,700,o),
(-5,700,c),
(-4,695,o),
(7,652,o),
(13,637,c),
(13,634,o),
(14,632,o),
(14,631,c),
(18,622,o),
(20,613,o),
(22,606,c),
(37,563,o),
(50,522,o),
(64,480,c)
);
},
{
closed = 1;
nodes = (
(348,0,o),
(357,0,o),
(361,0,c),
(366,17,o),
(395,120,o),
(406,152,c),
(412,168,o),
(412,169,o),
(421,198,c),
(423,203,o),
(326,236,o),
(317,240,c),
(308,215,o),
(303,195,o),
(287,138,c),
(256,240,o),
(233,313,o),
(242,286,c),
(242,285,o),
(134,261,o),
(134,259,c),
(145,223,o),
(166,165,o),
(177,131,c),
(180,120,o),
(185,107,o),
(188,98,c),
(190,91,o),
(213,4,o),
(214,0,c),
(291,0,l),
(307,0,o),
(320,0,o),
(338,0,c)
);
},
{
closed = 1;
nodes = (
(165,166,o),
(255,240,o),
(242,286,c),
(233,317,o),
(219,362,o),
(210,389,c),
(203,416,o),
(196,431,o),
(169,414,c),
(117,406,o),
(28,595,o),
(137,252,c)
);
},
{
closed = 1;
nodes = (
(425,209,o),
(431,233,o),
(435,251,c),
(436,254,o),
(437,257,o),
(439,264,c),
(440,267,o),
(441,270,o),
(442,273,c),
(447,288,o),
(451,301,o),
(456,315,c),
(471,362,o),
(485,407,o),
(501,454,c),
(503,460,o),
(511,492,o),
(512,495,c),
(532,537,o),
(464,509,o),
(456,502,c),
(452,498,o),
(392,498,o),
(390,492,c),
(369,428,o),
(332,304,o),
(317,240,c),
(350,228,o),
(396,209,o),
(421,198,c)
);
},
{
closed = 1;
nodes = (
(433,490,o),
(481,488,o),
(508,483,c),
(517,511,o),
(565,675,o),
(573,700,c),
(541,700,o),
(491,700,o),
(451,700,c),
(439,656,o),
(399,528,o),
(390,492,c)
);
}
);
width = 600;
}
);
unicode = (86,118);
},
{
glyphname = W;
lastChange = "2023-03-21 13:00:53 +0000";
layers = (
{
layerId = m01;
shapes = (
{
closed = 1;
nodes = (
(373,756,o),
(418,698,o),
(385,660,c),
(373,653,o),
(356,642,o),
(340,648,c),
(317,660,o),
(300,682,o),
(306,704,c),
(310,716,o),
(317,727,o),
(330,733,c)
);
},
{
closed = 1;
nodes = (
(74,748,o),
(119,743,o),
(136,719,c),
(159,692,o),
(131,641,o),
(91,646,c),
(74,652,o),
(62,663,o),
(55,683,c),
(52,693,o),
(54,706,o),
(60,716,c)
);
},
{
closed = 1;
nodes = (
(568,597,l),
(559,597,o),
(551,588,o),
(552,580,c),
(554,538,o),
(559,432,o),
(554,331,c),
(548,222,o),
(554,121,o),
(501,118,c),
(407,113,o),
(403,503,o),
(403,590,c),
(403,598,o),
(396,606,o),
(387,606,c),
(355,606,l),
(348,606,l),
(343,606,l),
(311,606,l),
(302,606,o),
(295,598,o),
(295,590,c),
(295,503,o),
(291,113,o),
(196,118,c),
(144,121,o),
(150,222,o),
(144,331,c),
(139,432,o),
(144,538,o),
(146,580,c),
(146,588,o),
(139,597,o),
(129,597,c),
(66,597,l),
(57,597,o),
(50,590,o),
(50,580,c),
(50,580,o),
(51,394,o),
(56,209,c),
(61,24,o),
(140,-6,o),
(234,1,c),
(283,5,o),
(315,79,o),
(333,143,c),
(337,159,o),
(361,159,o),
(365,143,c),
(383,79,o),
(415,5,o),
(465,1,c),
(558,-6,o),
(637,24,o),
(642,209,c),
(647,394,o),
(648,580,o),
(648,580,c),
(648,590,o),
(641,597,o),
(632,597,c)
);
},
{
closed = 1;
nodes = (
(572,738,o),
(617,749,o),
(639,721,c),
(651,704,o),
(651,682,o),
(639,665,c),
(623,642,o),
(583,642,o),
(566,663,c),
(558,674,o),
(554,688,o),
(559,703,c)
);
}
);
width = 668;
},
{
layerId = "CE1FC1EA-F01D-4D6B-B303-7D1D353E5BAE";
shapes = (
{
closed = 1;
nodes = (
(322,711,o),
(323,710,o),
(322,709,c),
(322,709,o),
(322,709,o),
(322,709,c),
(321,709,o),
(321,710,o),
(321,710,c),
(321,710,o),
(321,710,o),
(321,710,c)
);
},
{
closed = 1;
nodes = (
(67,704,o),
(67,704,o),
(67,704,c),
(67,704,o),
(67,704,o),
(67,704,c),
(67,704,o),
(67,704,o),
(67,704,c),
(67,704,o),
(67,704,o),
(67,704,c)
);
},
{
closed = 1;
nodes = (
(538,703,l),
(529,703,o),
(521,694,o),
(522,686,c),
(524,644,o),
(529,434,o),
(524,333,c),
(518,224,o),
(510,121,o),
(471,105,c),
(377,100,o),
(373,609,o),
(373,696,c),
(373,704,o),
(366,712,o),
(357,712,c),
(325,712,l),
(318,712,l),
(313,712,l),
(281,712,l),
(272,712,o),
(265,704,o),
(265,696,c),
(265,609,o),
(261,100,o),
(166,105,c),
(129,133,o),
(131,214,o),
(125,323,c),
(120,424,o),
(125,642,o),
(116,686,c),
(116,694,o),
(109,703,o),
(99,703,c),
(36,703,l),
(27,703,o),
(20,696,o),
(20,686,c),
(20,686,o),
(21,394,o),
(26,209,c),
(31,24,o),
(110,-6,o),
(204,1,c),
(253,5,o),
(285,79,o),
(303,143,c),
(307,159,o),
(331,159,o),
(335,143,c),
(353,79,o),
(385,5,o),
(435,1,c),
(528,-6,o),
(607,24,o),
(612,209,c),
(617,394,o),
(618,686,o),
(618,686,c),
(618,696,o),
(611,703,o),
(602,703,c)
);
},
{
closed = 1;
nodes = (
(575,705,o),
(575,705,o),
(575,704,c),
(576,704,o),
(576,704,o),
(575,704,c),
(575,704,o),
(575,704,o),
(575,704,c),
(575,704,o),
(575,704,o),
(575,704,c)
);
}
);
width = 628;
}
);
unicode = (87,119);
},
{
glyphname = X;
lastChange = "2023-03-21 13:00:53 +0000";
layers = (
{
layerId = m01;
shapes = (
{
closed = 1;
nodes = (
(354,322,o),
(354,346,o),
(367,364,c),
(367,365,o),
(367,365,o),
(367,365,c),
(419,438,o),
(471,511,o),
(523,584,c),
(548,618,o),
(523,700,o),
(481,700,c),
(314,700,l),
(276,700,l),
(108,700,l),
(66,700,o),
(42,618,o),
(66,584,c),
(118,511,o),
(170,438,o),
(222,365,c),
(222,365,o),
(222,365,o),
(222,364,c),
(235,346,o),
(235,322,o),
(222,304,c),
(222,304,o),
(222,304,o),
(222,304,c),
(170,231,o),
(118,158,o),
(66,85,c),
(42,50,o),
(66,3,o),
(108,3,c),
(276,3,l),
(314,3,l),
(481,3,l),
(523,3,o),
(548,50,o),
(523,85,c),
(471,158,o),
(419,231,o),
(367,304,c),
(367,304,o),
(367,304,o),
(367,304,c)
);
}
);
width = 600;
},
{
layerId = "CE1FC1EA-F01D-4D6B-B303-7D1D353E5BAE";
shapes = (
{
closed = 1;
nodes = (
(370,337,o),
(360,354,o),
(367,364,c),
(367,365,o),
(367,365,o),
(367,365,c),
(419,438,o),
(525,627,o),
(577,700,c),
(554,700,o),
(523,700,o),
(481,700,c),
(292,459,l),
(292,459,l),
(108,700,l),
(66,700,o),
(44,700,o),
(2,700,cs),
(2,700,o),
(170,438,o),
(222,365,c),
(222,365,o),
(222,365,o),
(222,364,c),
(219,356,o),
(210,339,o),
(203,327,c),
(200,322,o),
(187,301,o),
(187,301,c),
(138,226,o),
(44,75,o),
(-5,0,c),
(15,0,o),
(90,0,o),
(132,0,c),
(289,253,l),
(289,253,l),
(481,3,l),
(523,3,o),
(573,3,o),
(588,3,c),
(564,37,o),
(439,237,o),
(387,310,c),
(387,310,o),
(386,311,o),
(381,322,c)
);
}
);
width = 600;
}
);
unicode = (88,120);
},
{
glyphname = Y;
lastChange = "2023-03-21 13:00:53 +0000";
layers = (
{
layerId = m01;
shapes = (
{
closed = 1;
nodes = (
(601,683,o),
(594,688,o),
(584,691,c),
(581,691,o),
(577,692,o),
(573,692,c),
(545,692,o),
(534,692,o),
(506,692,c),
(499,692,o),
(492,692,o),
(486,689,c),
(471,684,o),
(469,668,o),
(469,654,c),
(468,578,o),
(461,481,o),
(399,427,c),
(359,392,o),
(299,392,o),
(251,409,c),
(194,430,o),
(157,474,o),
(150,534,c),
(146,567,o),
(150,601,o),
(151,634,c),
(151,654,o),
(152,686,o),
(126,687,c),
(98,688,o),
(71,688,o),
(43,689,c),
(36,689,o),
(28,689,o),
(21,687,c),
(2,678,o),
(0,654,o),
(-1,637,c),
(-3,612,o),
(-2,588,o),
(-1,563,c),
(2,514,o),
(17,465,o),
(44,424,c),
(84,359,o),
(155,312,o),
(232,290,c),
(267,279,o),
(286,240,o),
(271,206,c),
(247,150,o),
(233,90,o),
(231,29,c),
(231,12,o),
(244,-1,o),
(260,-1,c),
(559,-1,l),
(575,-1,o),
(587,12,o),
(587,28,c),
(587,449,l),
(587,510,o),
(591,591,o),
(601,656,c),
(602,660,o),
(602,664,o),
(602,668,c)
);
}
);
width = 600;
},
{
layerId = "CE1FC1EA-F01D-4D6B-B303-7D1D353E5BAE";
shapes = (
{
closed = 1;
nodes = (
(561,700,o),
(554,700,o),
(544,700,c),
(541,700,o),
(537,700,o),
(533,700,c),
(505,700,o),
(534,700,o),
(506,700,c),
(499,700,o),
(660,700,o),
(453,700,c),
(451,700,o),
(446,700,o),
(441,700,c),
(427,663,o),
(335,475,o),
(317,424,c),
(305,392,o),
(296,380,o),
(286,353,c),
(276,375,o),
(214,493,o),
(189,548,c),
(175,578,o),
(133,672,o),
(123,700,c),
(114,700,o),
(101,700,o),
(101,700,c),
(93,700,o),
(52,700,o),
(52,700,c),
(47,700,o),
(25,700,o),
(-6,700,c),
(10,663,o),
(37,609,o),
(44,594,c),
(54,572,o),
(63,551,o),
(73,531,c),
(93,489,o),
(128,427,o),
(145,392,c),
(165,364,o),
(215,248,o),
(226,231,c),
(226,221,o),
(226,227,o),
(226,200,c),
(226,144,o),
(226,90,o),
(226,29,c),
(226,12,o),
(226,13,o),
(226,0,c),
(317,0,l),
(333,0,o),
(318,0,o),
(344,0,c),
(345,223,l),
(345,284,o),
(551,621,o),
(561,700,c),
(562,700,o),
(562,700,o),
(562,700,c)
);
}
);
width = 582;
},
{
associatedMasterId = "CE1FC1EA-F01D-4D6B-B303-7D1D353E5BAE";
layerId = "235D5884-0C39-4804-8CF4-20F987FE91A0";
name = "Mar 3, 23, 16:45";
shapes = (
{
closed = 1;
nodes = (
(601,683,o),
(594,688,o),
(584,691,c),
(581,691,o),
(577,692,o),
(573,692,c),
(545,692,o),
(534,692,o),
(506,692,c),
(499,692,o),
(492,692,o),
(486,689,c),
(471,684,o),
(469,668,o),
(469,654,c),
(468,578,o),
(461,481,o),
(399,427,c),
(359,392,o),
(299,392,o),
(251,409,c),
(194,430,o),
(157,474,o),
(150,534,c),
(146,567,o),
(150,601,o),
(151,634,c),
(151,654,o),
(152,686,o),
(126,687,c),
(98,688,o),
(71,688,o),
(43,689,c),
(36,689,o),
(28,689,o),
(21,687,c),
(2,678,o),
(0,654,o),
(-1,637,c),
(-3,612,o),
(-2,588,o),
(-1,563,c),
(2,514,o),
(17,465,o),
(44,424,c),
(84,359,o),
(155,312,o),
(232,290,c),
(267,279,o),
(286,240,o),
(271,206,c),
(247,150,o),
(233,90,o),
(231,29,c),
(231,12,o),
(244,-1,o),
(260,-1,c),
(559,-1,l),
(575,-1,o),
(587,12,o),
(587,28,c),
(587,449,l),
(587,510,o),
(591,591,o),
(601,656,c),
(602,660,o),
(602,664,o),
(602,668,c)
);
},
{
closed = 1;
nodes = (
(225,0,l),
(344,0,l),
(344,228,l),
(567,700,l),
(442,700,l),
(284,351,l),
(120,700,l),
(-5,700,l),
(225,228,l)
);
}
);
visible = 1;
width = 600;
}
);
unicode = (89,121);
},
{
glyphname = Z;
lastChange = "2023-03-21 13:00:53 +0000";
layers = (
{
layerId = m01;
shapes = (
{
closed = 1;
nodes = (
(488,-2,o),
(505,-2,o),
(522,0,c),
(535,0,o),
(549,2,o),
(560,7,c),
(572,12,o),
(583,22,o),
(585,35,c),
(588,50,o),
(597,101,o),
(568,140,c),
(559,151,o),
(542,155,o),
(528,161,c),
(502,173,o),
(485,188,o),
(483,219,c),
(473,375,o),
(470,477,o),
(475,643,c),
(476,675,o),
(450,702,o),
(417,702,c),
(304,703,o),
(190,703,o),
(77,703,c),
(62,703,o),
(47,703,o),
(34,699,c),
(20,694,o),
(7,684,o),
(3,669,c),
(-2,648,o),
(7,621,o),
(24,607,c),
(41,592,o),
(64,586,o),
(85,579,c),
(100,575,o),
(114,571,o),
(129,566,c),
(209,542,o),
(244,448,o),
(200,377,c),
(155,307,o),
(111,235,o),
(66,167,c),
(47,138,o),
(28,108,o),
(15,76,c),
(0,38,o),
(29,-4,o),
(70,-3,c),
(137,0,o),
(203,0,o),
(270,1,c),
(336,1,o),
(402,-2,o),
(468,-2,c),
(469,-2,o),
(470,-2,o),
(470,-2,c)
);
},
{
closed = 1;
nodes = (
(397,60,o),
(352,65,o),
(335,89,c),
(312,116,o),
(340,167,o),
(380,162,c),
(397,156,o),
(409,145,o),
(416,125,c),
(419,115,o),
(417,102,o),
(411,92,c)
);
}
);
width = 600;
},
{
layerId = "CE1FC1EA-F01D-4D6B-B303-7D1D353E5BAE";
shapes = (
{
closed = 1;
nodes = (
(467,2,o),
(431,2,o),
(481,2,c),
(481,2,o),
(481,2,o),
(481,2,c),
(481,12,o),
(481,22,o),
(481,35,c),
(481,50,o),
(481,65,o),
(481,75,c),
(481,84,o),
(481,90,o),
(481,96,c),
(436,96,o),
(181,97,o),
(147,97,c),
(176,141,o),
(436,526,o),
(478,590,c),
(479,622,o),
(476,688,o),
(476,703,c),
(361,703,o),
(190,703,o),
(77,703,c),
(62,703,o),
(15,703,o),
(2,703,c),
(2,695,o),
(2,684,o),
(2,669,c),
(2,648,o),
(2,593,o),
(2,593,c),
(34,593,o),
(58,593,o),
(79,593,c),
(94,593,o),
(326,593,o),
(341,593,c),
(305,541,o),
(244,448,o),
(200,377,c),
(155,307,o),
(111,235,o),
(66,167,c),
(47,138,o),
(28,108,o),
(15,76,c),
(0,38,o),
(29,2,o),
(70,2,c),
(137,2,o),
(203,2,o),
(270,2,c),
(336,2,o),
(375,2,o),
(441,2,c),
(442,2,o),
(459,2,o),
(459,2,c)
);
},
{
closed = 1;
nodes = (
(311,59,o),
(311,59,o),
(311,59,c),
(311,59,o),
(311,58,o),
(311,58,c),
(311,59,o),
(311,59,o),
(310,59,c),
(310,59,o),
(310,59,o),
(311,59,c)
);
}
);
width = 600;
}
);
unicode = (90,122);
},
{
glyphname = zero;
lastChange = "2023-03-10 01:47:40 +0000";
layers = (
{
layerId = m01;
shapes = (
{
closed = 1;
nodes = (
(385,233,o),
(370,197,o),
(333,179,c),
(323,174,o),
(311,171,o),
(299,171,c),
(288,171,o),
(277,174,o),
(267,179,c),
(229,197,o),
(215,233,o),
(210,273,c),
(205,325,o),
(208,378,o),
(212,429,c),
(216,466,o),
(231,501,o),
(267,518,c),
(277,523,o),
(288,526,o),
(299,526,c),
(311,526,o),
(323,523,o),
(333,518,c),
(368,501,o),
(384,466,o),
(387,429,c),
(392,378,o),
(395,325,o),
(389,273,c)
);
},
{
closed = 1;
nodes = (
(365,583,o),
(327,594,o),
(287,591,c),
(218,587,o),
(159,539,o),
(140,473,c),
(132,449,o),
(130,424,o),
(128,399,c),
(124,342,o),
(122,279,o),
(140,223,c),
(150,190,o),
(170,157,o),
(203,135,c),
(295,72,o),
(427,116,o),
(460,223,c),
(476,279,o),
(475,342,o),
(471,399,c),
(469,424,o),
(467,449,o),
(460,473,c),
(448,510,o),
(425,540,o),
(396,562,c)
);
},
{
closed = 1;
nodes = (
(505,334,o),
(502,305,o),
(500,276,c),
(492,185,o),
(439,94,o),
(345,72,c),
(331,69,o),
(315,67,o),
(299,66,c),
(284,67,o),
(269,69,o),
(254,72,c),
(159,94,o),
(107,185,o),
(99,276,c),
(96,305,o),
(94,334,o),
(93,362,c),
(93,421,o),
(103,481,o),
(133,532,c),
(154,571,o),
(187,600,o),
(227,616,c),
(236,620,o),
(245,622,o),
(254,625,c),
(269,628,o),
(284,630,o),
(299,631,c),
(315,630,o),
(331,628,o),
(345,625,c),
(354,622,o),
(363,620,o),
(371,616,c),
(412,600,o),
(445,571,o),
(467,532,c),
(495,481,o),
(506,421,o),
(505,362,c)
);
},
{
closed = 1;
nodes = (
(594,475,o),
(565,565,o),
(500,622,c),
(482,638,o),
(462,653,o),
(439,664,c),
(348,713,o),
(250,713,o),
(159,664,c),
(137,653,o),
(117,638,o),
(99,622,c),
(33,565,o),
(5,475,o),
(0,390,c),
(-8,278,o),
(11,151,o),
(99,75,c),
(117,59,o),
(137,44,o),
(159,32,c),
(249,-15,o),
(349,-16,o),
(439,32,c),
(462,44,o),
(482,59,o),
(500,75,c),
(588,151,o),
(607,278,o),
(599,390,c)
);
}
);
width = 600;
},
{
layerId = "CE1FC1EA-F01D-4D6B-B303-7D1D353E5BAE";
shapes = (
{
closed = 1;
nodes = (
(307,348,o),
(306,348,o),
(306,348,c),
(306,348,o),
(306,348,o),
(306,348,c),
(306,348,o),
(306,348,o),
(306,348,c),
(306,348,o),
(306,348,o),
(306,348,c),
(305,348,o),
(305,349,o),
(306,349,c),
(306,349,o),
(306,349,o),
(306,350,c),
(306,350,o),
(306,350,o),
(306,350,c),
(306,350,o),
(306,350,o),
(306,350,c),
(306,349,o),
(307,349,o),
(307,349,c),
(307,349,o),
(307,348,o),
(307,348,c)
);
},
{
closed = 1;
nodes = (
(306,350,o),
(306,350,o),
(306,350,c),
(306,350,o),
(305,350,o),
(305,349,c),
(305,349,o),
(305,349,o),
(305,349,c),
(305,349,o),
(305,348,o),
(305,348,c),
(305,348,o),
(305,347,o),
(305,347,c),
(306,347,o),
(307,347,o),
(307,348,c),
(307,348,o),
(307,349,o),
(307,349,c),
(307,349,o),
(307,349,o),
(307,349,c),
(307,350,o),
(307,350,o),
(307,350,c)
);
},
{
closed = 1;
nodes = (
(505,334,o),
(502,305,o),
(500,276,c),
(492,185,o),
(439,94,o),
(345,72,c),
(331,69,o),
(315,67,o),
(299,66,c),
(284,67,o),
(269,69,o),
(254,72,c),
(159,94,o),
(107,185,o),
(99,276,c),
(96,305,o),
(94,334,o),
(93,362,c),
(93,421,o),
(103,481,o),
(133,532,c),
(154,571,o),
(187,600,o),
(227,616,c),
(236,620,o),
(245,622,o),
(254,625,c),
(269,628,o),
(284,630,o),
(299,631,c),
(315,630,o),
(331,628,o),
(345,625,c),
(354,622,o),
(363,620,o),
(371,616,c),
(412,600,o),
(445,571,o),
(467,532,c),
(495,481,o),
(506,421,o),
(505,362,c)
);
},
{
closed = 1;
nodes = (
(594,475,o),
(565,565,o),
(500,622,c),
(482,638,o),
(462,653,o),
(439,664,c),
(348,713,o),
(250,713,o),
(159,664,c),
(137,653,o),
(117,638,o),
(99,622,c),
(33,565,o),
(5,475,o),
(0,390,c),
(-8,278,o),
(11,151,o),
(99,75,c),
(117,59,o),
(137,44,o),
(159,32,c),
(249,-15,o),
(349,-16,o),
(439,32,c),
(462,44,o),
(482,59,o),
(500,75,c),
(588,151,o),
(607,278,o),
(599,390,c)
);
}
);
width = 600;
}
);
unicode = 48;
},
{
glyphname = one;
lastChange = "2023-03-09 21:45:16 +0000";
layers = (
{
layerId = m01;
shapes = (
{
closed = 1;
nodes = (
(389,278,o),
(391,432,o),
(391,453,c),
(392,502,o),
(392,551,o),
(392,599,c),
(392,639,o),
(406,686,o),
(353,695,c),
(322,700,o),
(262,702,o),
(245,668,c),
(229,638,o),
(238,599,o),
(233,566,c),
(222,494,o),
(198,410,o),
(121,393,c),
(110,390,o),
(102,381,o),
(102,369,c),
(102,339,o),
(102,310,o),
(102,280,c),
(101,268,o),
(110,258,o),
(122,256,c),
(160,249,o),
(194,220,o),
(213,185,c),
(235,147,o),
(243,103,o),
(250,60,c),
(255,33,o),
(254,2,o),
(289,-1,c),
(312,-3,o),
(336,-2,o),
(359,1,c),
(378,3,o),
(384,11,o),
(385,29,c),
(385,31,o),
(385,32,o),
(385,34,c),
(386,109,o),
(387,183,o),
(389,258,cs)
);
}
);
width = 600;
},
{
layerId = "CE1FC1EA-F01D-4D6B-B303-7D1D353E5BAE";
shapes = (
{
closed = 1;
nodes = (
(312,293,o),
(312,432,o),
(312,453,c),
(312,502,o),
(312,551,o),
(312,599,c),
(312,639,o),
(312,686,o),
(312,702,c),
(228,702,o),
(238,702,o),
(194,702,c),
(194,672,o),
(194,599,o),
(194,566,c),
(194,494,o),
(194,410,o),
(194,393,c),
(194,390,o),
(194,381,o),
(194,369,c),
(194,339,o),
(194,310,o),
(194,280,c),
(194,268,o),
(194,258,o),
(194,256,c),
(194,249,o),
(194,220,o),
(194,185,c),
(194,147,o),
(194,45,o),
(194,-3,c),
(231,-3,o),
(194,-3,o),
(289,-3,c),
(312,-3,o),
(242,-3,o),
(312,-3,c),
(312,-3,o),
(312,-3,o),
(312,29,c),
(312,31,o),
(312,32,o),
(312,34,c),
(312,109,o),
(312,201,o),
(312,258,cs)
);
}
);
width = 600;
}
);
unicode = 49;
},
{
glyphname = two;
lastChange = "2023-03-09 22:46:38 +0000";
layers = (
{
layerId = m01;
shapes = (
{
closed = 1;
nodes = (
(328,1,o),
(340,0,o),
(353,0,c),
(462,4,o),
(524,105,o),
(572,190,c),
(586,213,o),
(569,243,o),
(541,242,c),
(514,242,o),
(485,242,o),
(479,242,c),
(434,240,o),
(390,238,o),
(345,237,c),
(272,236,o),
(200,237,o),
(127,237,c),
(102,237,o),
(85,212,o),
(95,189,c),
(114,141,o),
(150,100,o),
(191,68,c),
(227,38,o),
(269,11,o),
(316,3,c)
);
},
{
closed = 1;
nodes = (
(380,314,o),
(381,323,o),
(381,331,c),
(384,377,o),
(393,422,o),
(389,469,c),
(383,523,o),
(357,576,o),
(316,613,c),
(280,646,o),
(219,678,o),
(168,672,c),
(118,667,o),
(69,623,o),
(38,587,c),
(10,554,o),
(-7,509,o),
(2,467,c),
(4,455,o),
(10,434,o),
(21,427,c),
(32,420,o),
(54,423,o),
(65,424,c),
(72,424,o),
(80,426,o),
(84,430,c),
(108,453,o),
(81,489,o),
(95,514,c),
(97,518,o),
(101,522,o),
(105,526,c),
(129,545,o),
(160,562,o),
(192,561,c),
(205,560,o),
(219,558,o),
(232,551,c),
(234,550,o),
(261,527,o),
(256,525,c),
(227,512,o),
(195,520,o),
(167,497,c),
(106,446,o),
(96,417,o),
(109,347,c),
(109,344,o),
(110,341,o),
(112,339,c),
(114,337,o),
(117,337,o),
(120,337,c),
(138,337,o),
(156,337,o),
(175,337,c),
(195,337,o),
(190,354,o),
(194,369,c),
(199,384,o),
(209,397,o),
(223,406,c),
(235,413,o),
(249,417,o),
(263,414,c),
(292,406,o),
(296,368,o),
(298,344,c),
(300,315,o),
(298,287,o),
(296,258,c),
(295,248,o),
(295,235,o),
(303,229,c),
(307,227,o),
(312,226,o),
(316,226,c),
(333,224,o),
(349,222,o),
(366,220,c),
(371,219,o),
(376,219,o),
(381,221,c),
(397,227,o),
(386,254,o),
(384,265,c),
(381,279,o),
(380,292,o),
(380,306,c)
);
}
);
width = 600;
},
{
layerId = "CE1FC1EA-F01D-4D6B-B303-7D1D353E5BAE";
shapes = (
{
closed = 1;
nodes = (
(293,0,o),
(305,0,o),
(318,0,c),
(427,0,o),
(455,0,o),
(503,0,c),
(503,84,o),
(503,93,o),
(503,109,c),
(492,109,o),
(462,109,o),
(454,109,c),
(415,109,o),
(390,109,o),
(345,109,c),
(272,109,o),
(84,108,o),
(45,108,c),
(44,68,o),
(41,252,o),
(30,0,c),
(66,0,o),
(115,0,o),
(156,0,c),
(192,0,o),
(234,0,o),
(281,0,c)
);
},
{
closed = 1;
nodes = (
(433,306,o),
(443,317,o),
(452,328,c),
(464,348,o),
(488,351,o),
(488,458,c),
(488,585,o),
(443,630,o),
(408,655,c),
(360,684,o),
(299,700,o),
(248,700,c),
(108,700,o),
(61,613,o),
(44,577,c),
(25,536,o),
(10,506,o),
(5,456,c),
(9,454,o),
(15,453,o),
(23,451,c),
(33,448,o),
(61,441,o),
(78,437,c),
(85,435,o),
(114,429,o),
(118,427,c),
(120,458,o),
(124,481,o),
(138,506,c),
(140,510,o),
(155,528,o),
(173,544,c),
(194,559,o),
(194,557,o),
(208,562,c),
(222,566,o),
(233,567,o),
(247,567,c),
(283,566,o),
(298,557,o),
(316,551,c),
(335,544,o),
(369,520,o),
(369,459,c),
(369,397,o),
(362,387,o),
(343,370,c),
(332,362,o),
(323,358,o),
(307,348,c),
(299,343,o),
(251,321,o),
(254,321,c),
(242,315,o),
(228,311,o),
(196,296,c),
(170,284,o),
(130,262,o),
(104,237,c),
(89,222,o),
(77,207,o),
(68,195,c),
(41,168,o),
(33,119,o),
(38,91,c),
(67,83,o),
(138,108,o),
(159,108,c),
(161,134,o),
(175,159,o),
(200,171,c),
(239,191,o),
(262,203,o),
(281,210,c),
(293,215,o),
(305,219,o),
(309,221,c),
(327,230,o),
(330,231,o),
(347,240,c),
(362,250,o),
(373,255,o),
(378,260,c),
(394,272,o),
(398,276,o),
(407,284,c),
(417,292,o),
(408,285,o),
(425,298,c)
);
}
);
width = 600;
}
);
unicode = 50;
},
{
glyphname = three;
lastChange = "2023-03-09 22:55:47 +0000";
layers = (
{
layerId = m01;
shapes = (
{
closed = 1;
nodes = (
(610,1,o),
(604,-2,o),
(595,-3,c),
(537,-9,o),
(474,-2,o),
(416,-2,c),
(296,-1,o),
(177,0,o),
(57,1,c),
(47,1,o),
(37,1,o),
(29,8,c),
(17,18,o),
(20,36,o),
(25,51,c),
(48,123,o),
(109,181,o),
(181,202,c),
(134,212,o),
(80,227,o),
(60,271,c),
(44,305,o),
(55,347,o),
(79,376,c),
(102,405,o),
(136,424,o),
(169,440,c),
(154,432,o),
(104,462,o),
(91,469,c),
(64,485,o),
(40,504,o),
(19,526,c),
(-15,564,o),
(-58,621,o),
(-46,675,c),
(-45,679,o),
(-44,682,o),
(-42,686,c),
(-31,703,o),
(4,702,o),
(22,703,c),
(46,704,o),
(70,704,o),
(94,704,c),
(126,704,o),
(158,703,o),
(189,703,c),
(191,703,o),
(192,703,o),
(193,703,c),
(249,703,o),
(305,704,o),
(361,704,c),
(420,705,o),
(483,711,o),
(542,703,c),
(563,700,o),
(585,694,o),
(598,678,c),
(615,659,o),
(615,629,o),
(605,606,c),
(594,580,o),
(573,558,o),
(554,538,c),
(509,490,o),
(450,455,o),
(386,440,c),
(428,424,o),
(470,407,o),
(502,376,c),
(534,345,o),
(551,295,o),
(532,255,c),
(512,214,o),
(465,198,o),
(421,186,c),
(438,190,o),
(483,158,o),
(496,150,c),
(521,134,o),
(543,116,o),
(563,95,c),
(563,95,o),
(563,95,o),
(563,95,c),
(579,78,o),
(630,26,o),
(613,5,c)
);
}
);
width = 600;
},
{
layerId = "CE1FC1EA-F01D-4D6B-B303-7D1D353E5BAE";
shapes = (
{
closed = 1;
nodes = (
(442,97,o),
(425,57,o),
(369,23,c),
(326,0,o),
(295,-10,o),
(237,-10,c),
(190,-12,o),
(129,7,o),
(101,30,c),
(86,37,o),
(31,62,o),
(5,164,c),
(26,175,o),
(79,200,o),
(108,215,c),
(128,134,o),
(182,103,o),
(241,103,c),
(297,103,o),
(354,175,o),
(354,219,c),
(354,322,o),
(294,335,o),
(180,335,c),
(180,363,o),
(180,403,o),
(180,434,c),
(190,443,o),
(286,538,o),
(304,561,c),
(277,561,o),
(44,561,o),
(18,562,c),
(18,602,o),
(18,616,o),
(18,672,c),
(19,672,o),
(20,672,o),
(22,672,c),
(33,672,o),
(68,672,o),
(86,672,c),
(110,672,o),
(134,672,o),
(158,672,c),
(190,672,o),
(222,672,o),
(253,672,c),
(255,672,o),
(256,672,o),
(257,672,c),
(313,672,o),
(202,671,o),
(258,671,c),
(317,671,o),
(317,671,o),
(376,671,c),
(397,671,o),
(449,671,o),
(449,671,c),
(449,619,o),
(449,628,o),
(449,605,c),
(449,579,o),
(449,585,o),
(449,562,c),
(411,525,o),
(352,465,o),
(315,428,c),
(404,405,o),
(425,359,o),
(440,335,c),
(454,304,o),
(462,290,o),
(470,251,c),
(472,229,o),
(472,211,o),
(470,192,c),
(469,183,o),
(469,179,o),
(468,169,c),
(466,160,o),
(464,155,o),
(462,146,c),
(460,136,o),
(457,130,o),
(457,130,c),
(449,113,o),
(450,111,o),
(444,101,cs)
);
}
);
width = 600;
}
);
unicode = 51;
},
{
glyphname = four;
lastChange = "2023-03-09 23:06:51 +0000";
layers = (
{
layerId = m01;
shapes = (
{
closed = 1;
nodes = (
(356,722,o),
(385,684,o),
(403,651,c),
(468,533,o),
(533,415,o),
(598,297,c),
(608,280,o),
(618,261,o),
(620,241,c),
(622,221,o),
(614,198,o),
(596,189,c),
(584,183,o),
(570,183,o),
(557,184,c),
(416,192,o),
(276,205,o),
(136,223,c),
(16,239,o),
(-47,298,o),
(41,413,c),
(112,505,o),
(187,594,o),
(261,683,c),
(275,699,o),
(290,716,o),
(310,720,c),
(314,721,o),
(317,722,o),
(321,722,c)
);
},
{
closed = 1;
nodes = (
(322,230,o),
(435,243,o),
(471,162,c),
(486,137,o),
(491,104,o),
(483,79,c),
(466,29,o),
(435,1,o),
(393,-14,c),
(292,-27,o),
(221,102,o),
(279,170,c)
);
},
{
closed = 1;
nodes = (
(260,364,l),
(260,364,l),
(260,364,l)
);
}
);
width = 600;
},
{
layerId = "CE1FC1EA-F01D-4D6B-B303-7D1D353E5BAE";
shapes = (
{
closed = 1;
nodes = (
(435,652,o),
(435,588,o),
(436,539,c),
(436,424,o),
(436,375,o),
(435,275,c),
(466,275,o),
(548,275,o),
(578,275,c),
(578,255,o),
(578,175,o),
(578,166,c),
(538,166,o),
(463,166,o),
(443,166,c),
(305,166,o),
(135,166,o),
(-5,166,c),
(-4,221,o),
(-5,218,o),
(-5,275,c),
(66,367,o),
(223,575,o),
(297,670,c),
(309,670,o),
(318,670,o),
(338,670,c),
(342,671,o),
(431,670,o),
(435,670,c)
);
},
{
closed = 1;
nodes = (
(366,166,o),
(406,166,o),
(435,166,c),
(435,130,o),
(436,30,o),
(436,0,c),
(393,0,o),
(363,0,o),
(321,0,c),
(321,64,o),
(320,89,o),
(320,166,c)
);
},
{
closed = 1;
nodes = (
(123,275,l),
(320,275,l),
(320,533,l)
);
}
);
width = 600;
}
);
unicode = 52;
},
{
glyphname = five;
lastChange = "2023-03-10 01:19:15 +0000";
layers = (
{
layerId = m01;
shapes = (
{
closed = 1;
nodes = (
(157,239,o),
(170,248,o),
(182,258,c),
(198,270,o),
(214,283,o),
(231,295,cs),
(295,344,o),
(358,393,o),
(423,442,c),
(445,459,o),
(470,484,o),
(466,510,c),
(466,513,o),
(465,516,o),
(464,518,c),
(458,533,o),
(444,542,o),
(431,550,c),
(356,596,o),
(282,642,o),
(206,684,c),
(111,737,o),
(74,683,o),
(75,592,c),
(77,487,o),
(83,381,o),
(93,275,c),
(94,266,o),
(95,255,o),
(101,247,c),
(110,235,o),
(127,231,o),
(142,235,c)
);
},
{
closed = 1;
nodes = (
(445,4,o),
(507,105,o),
(556,190,c),
(569,213,o),
(552,243,o),
(525,242,c),
(497,242,o),
(469,242,o),
(462,242,c),
(418,240,o),
(373,238,o),
(329,237,c),
(256,236,o),
(183,237,o),
(110,237,c),
(86,237,o),
(69,212,o),
(78,189,c),
(98,141,o),
(134,100,o),
(174,68,c),
(211,38,o),
(253,11,o),
(299,3,c),
(311,1,o),
(324,0,o),
(336,0,c)
);
},
{
closed = 1;
nodes = (
(495,229,o),
(525,257,o),
(543,308,c),
(551,333,o),
(545,366,o),
(530,391,c),
(495,471,o),
(382,459,o),
(339,398,c),
(281,330,o),
(351,202,o),
(452,214,c)
);
}
);
width = 600;
},
{
layerId = "CE1FC1EA-F01D-4D6B-B303-7D1D353E5BAE";
shapes = (
{
closed = 1;
nodes = (
(212,354,o),
(250,366,o),
(309,369,c),
(315,402,o),
(326,472,o),
(327,482,c),
(270,482,o),
(216,467,o),
(176,431,c),
(174,468,o),
(168,537,o),
(166,563,c),
(198,563,o),
(506,565,o),
(505,567,c),
(505,582,o),
(505,641,o),
(505,676,c),
(426,676,o),
(125,676,o),
(47,676,c),
(50,629,o),
(47,676,o),
(53,586,c),
(61,481,o),
(62,453,o),
(69,347,c),
(70,338,o),
(71,313,o),
(72,305,c),
(108,300,o),
(132,297,o),
(180,290,c)
);
},
{
closed = 1;
nodes = (
(502,40,o),
(558,156,o),
(558,237,c),
(558,239,o),
(558,240,o),
(558,242,c),
(530,242,o),
(446,237,o),
(439,237,c),
(439,148,o),
(373,103,o),
(310,103,c),
(273,103,o),
(205,121,o),
(178,201,c),
(162,190,o),
(99,149,o),
(75,136,c),
(95,88,o),
(74,137,o),
(75,136,c),
(130,24,o),
(250,-5,o),
(307,-10,c),
(354,-10,o),
(406,4,o),
(426,10,c)
);
},
{
closed = 1;
nodes = (
(372,369,o),
(439,326,o),
(439,237,c),
(439,148,o),
(558,156,o),
(558,237,c),
(558,381,o),
(447,482,o),
(327,482,c),
(318,429,o),
(318,422,o),
(309,369,c)
);
}
);
width = 600;
}
);
unicode = 53;
},
{
glyphname = six;
lastChange = "2023-03-10 01:46:51 +0000";
layers = (
{
layerId = m01;
shapes = (
{
closed = 1;
nodes = (
(124.473,386.006,o),
(111.63,446.655,o),
(121.282,508.335,c),
(134.62,593.572,o),
(195.364,689.383,o),
(289.375,695.335,c),
(364.937,700.118,o),
(432.102,648.272,o),
(471.252,587.648,c),
(521.225,510.264,o),
(532.036,412.792,o),
(505.121,325.218,c),
(483.82,307.003,o),
(423.457,305.869,o),
(426.143,345.218,c),
(447.241,449.592,o),
(377.601,671.223,o),
(252.113,544.224,c),
(388.631,544.032,o),
(413.296,384.518,o),
(390.132,278.21,c),
(389.56,259.744,o),
(322.486,267.773,o),
(309.142,272.213,c),
(293.829,314.964,o),
(328.416,377.634,o),
(293.134,417.22,c),
(206,489,o),
(203,329,o),
(213.149,278.224,c),
(215.877,261.725,o),
(210.204,245.488,o),
(192.141,245.222,c),
(175.638,244.98,o),
(142.181,230.602,o),
(127.019,243.358,c),
(116.135,252.515,o),
(121.789,271.391,o),
(123.14,283.467,c),
(124.699,297.396,o),
(125.203,311.301,o),
(125.067,325.199,c)
);
},
{
closed = 1;
nodes = (
(124,386,o),
(354,290,o),
(310.135,122.206,c),
(296,71,o),
(271,38,o),
(240,19,cs),
(187,-14,o),
(118,-1,o),
(68,36,cs),
(5,82,o),
(-29,166,o),
(30.141,247.221,c)
);
}
);
width = 600;
},
{
layerId = "CE1FC1EA-F01D-4D6B-B303-7D1D353E5BAE";
shapes = (
{
closed = 1;
nodes = (
(82,427,o),
(80,423,o),
(96,447,c),
(122,482,o),
(134,500,o),
(156,531,c),
(186,577,o),
(180,567,o),
(204,606,c),
(227,641,o),
(232,648,o),
(248,670,c),
(279,670,o),
(303,670,o),
(374,670,c),
(329,606,o),
(295,558,o),
(250,489,c),
(387,489,o),
(550,347,o),
(527,241,c),
(526,223,o),
(421,237,o),
(408,241,c),
(411,296,o),
(398,298,o),
(376,332,c),
(334,365,o),
(309,370,o),
(260,373,c),
(196,373,o),
(134,312,o),
(134,241,c),
(117,241,o),
(35,241,o),
(15,241,c),
(15,260,o),
(18,282,o),
(20,294,c),
(21,308,o),
(28,335,o),
(61,392,c)
);
},
{
closed = 1;
nodes = (
(74,240,o),
(107,240,o),
(134,241,c),
(134,152,o),
(320,-16,o),
(408,241,cs),
(436,322,o),
(534,256,o),
(526,236,cs),
(352,-229,o),
(15,97,o),
(15,241,c)
);
}
);
width = 600;
}
);
unicode = 54;
},
{
glyphname = seven;
lastChange = "2023-03-10 01:54:25 +0000";
layers = (
{
layerId = m01;
shapes = (
{
closed = 1;
nodes = (
(450.112,298.237,o),
(452.694,299.197,o),
(455.251,300.483,c),
(469.262,307.534,o),
(477.099,322.538,o),
(484.036,336.606,c),
(522.62,414.855,o),
(561.219,493.134,o),
(596.343,572.995,c),
(639.97,672.193,o),
(583.693,704.072,o),
(493.156,694.269,c),
(387.911,682.873,o),
(283.129,667.295,o),
(179.136,647.498,c),
(169.386,645.642,o),
(159.156,643.519,o),
(151.654,637.021,c),
(140.15,627.055,o),
(138.488,609.16,o),
(143.618,594.83,c),
(148.747,580.5,o),
(159.31,568.888,o),
(169.618,557.689,c),
(238.046,483.345,o),
(306.474,409.002,o),
(374.903,334.658,c),
(394.212,313.679,o),
(421.637,290.959,o),
(447.514,297.573,c)
);
},
{
closed = 1;
nodes = (
(222.122,7.619,o),
(270.716,18.673,o),
(309.549,45.771,c),
(319.488,52.707,o),
(328.788,60.694,o),
(337.258,69.901,c),
(411.364,150.463,o),
(383.754,265.082,o),
(357.702,359.564,c),
(350.502,385.673,o),
(317.537,393.931,o),
(298.75,374.421,c),
(279.391,354.316,o),
(259.013,334.491,o),
(254.645,329.687,c),
(224.707,296.766,o),
(194.41,264.172,o),
(163.762,231.91,c),
(113.647,179.155,o),
(61.157,128.729,o),
(10.037,77.023,c),
(-7.417,59.369,o),
(-1.535,29.688,o),
(21.353,20.07,c),
(69.528,-0.175,o),
(123.699,-3.089,o),
(175.126,2.506,c)
);
}
);
width = 600;
},
{
layerId = "CE1FC1EA-F01D-4D6B-B303-7D1D353E5BAE";
shapes = (
{
closed = 1;
nodes = (
(311,469,o),
(329,496,o),
(372,562,c),
(292,562,o),
(112,562,o),
(5,562,c),
(5,573,o),
(5,601,o),
(5,615,c),
(5,629,o),
(5,636,o),
(5,646,c),
(5,653,o),
(5,670,o),
(5,671,c),
(55,671,o),
(218,675,o),
(507,671,c),
(507,625,o),
(507,610,o),
(507,562,c),
(465,493,o),
(373,354,o),
(332,288,c),
(291,306,o),
(245,326,o),
(226,334,c),
(226,333,o),
(240,354,o),
(240,354,cs)
);
},
{
closed = 1;
nodes = (
(180,50,o),
(184,56,o),
(189,64,c),
(282,211,o),
(289,221,o),
(332,288,c),
(275,313,o),
(263,318,o),
(226,334,c),
(214,318,o),
(199,295,o),
(197,291,c),
(180,263,o),
(162,236,o),
(145,208,c),
(118,163,o),
(91,121,o),
(64,76,c),
(54,62,o),
(16,9,o),
(12,0,c),
(33,0,o),
(124,0,o),
(147,0,c),
(159,19,o),
(162,21,o),
(176,43,c)
);
}
);
width = 600;
}
);
unicode = 55;
},
{
glyphname = eight;
lastChange = "2023-03-10 02:00:38 +0000";
layers = (
{
layerId = m01;
shapes = (
{
closed = 1;
nodes = (
(542.042,150.753,o),
(542.033,150.767,o),
(542.024,150.781,c),
(522.033,182.458,o),
(499.486,210.479,o),
(475.023,233.951,c),
(461.627,246.804,o),
(416.572,295.044,o),
(400.37,287.941,c),
(443.457,306.831,o),
(491.345,331.599,o),
(510.882,392.547,c),
(526.75,442.049,o),
(517.373,500.896,o),
(497.788,544.706,c),
(453.634,643.474,o),
(350.051,686.668,o),
(275.422,690.423,c),
(212.871,693.569,o),
(149.895,670.513,o),
(95.072,625.03,c),
(50.111,587.728,o),
(15.416,494.475,o),
(38.549,417.673,c),
(58.663,350.893,o),
(112.72,327.819,o),
(160.238,312.342,c),
(87.773,280.9,o),
(27.186,192.981,o),
(3.534,84.947,c),
(-1.322,62.763,o),
(-3.641,34.476,o),
(8,-6,c),
(16,-6,o),
(26,-6,o),
(36,-6,c),
(156,-6,o),
(275,-6,o),
(394,-6,c),
(453,-6,o),
(515.744,-5.534,o),
(574,-6,c),
(583,-6,o),
(589,-6,o),
(592,-6,c),
(608.779,46.629,o),
(557.557,126.165,o),
(542.051,150.738,c)
);
},
{
closed = 1;
nodes = (
(268,487,o),
(268,487,o),
(268,488,cs),
(268,488,o),
(268,488,o),
(269,488,cs),
(269,488,o),
(269,488,o),
(269,488,cs),
(269,487,o),
(269,487,o),
(269,487,cs)
);
},
{
closed = 1;
nodes = (
(255,173,o),
(255,173,o),
(255,173,cs),
(255,173,o),
(255,173,o),
(255,173,cs),
(255,173,o),
(255,173,o),
(255,173,cs),
(255,173,o),
(255,173,o),
(255,173,cs)
);
}
);
width = 600;
},
{
layerId = "CE1FC1EA-F01D-4D6B-B303-7D1D353E5BAE";
shapes = (
{
closed = 1;
nodes = (
(314,-10,o),
(373,5,o),
(424,52,c),
(459,85,o),
(472,115,o),
(475,115,c),
(484,144,o),
(487,152,o),
(491,187,c),
(491,187,o),
(495,246,o),
(495,246,c),
(492,281,o),
(492,293,o),
(468,316,c),
(455,329,o),
(417,295,o),
(400,288,c),
(443,307,o),
(491,332,o),
(511,393,c),
(527,442,o),
(517,501,o),
(498,545,c),
(454,643,o),
(350,687,o),
(275,690,c),
(213,694,o),
(150,671,o),
(95,625,c),
(50,588,o),
(15,494,o),
(39,418,c),
(59,351,o),
(113,328,o),
(160,312,c),
(-14,432,o),
(15,241,o),
(15,217,c),
(19,195,o),
(30,115,o),
(59,75,c),
(92,40,o),
(108,36,o),
(140,17,c),
(154,10,o),
(192,-3,o),
(255,-10,c)
);
},
{
closed = 1;
nodes = (
(221,384,o),
(161,415,o),
(161,487,cs),
(161,559,o),
(221,592,o),
(267,592,cs),
(313,592,o),
(373,559,o),
(373,487,cs),
(373,415,o),
(313,384,o),
(267,384,cs)
);
},
{
closed = 1;
nodes = (
(209,70,o),
(149,101,o),
(149,173,cs),
(149,245,o),
(209,278,o),
(255,278,cs),
(301,278,o),
(361,245,o),
(361,173,cs),
(361,101,o),
(301,70,o),
(255,70,cs)
);
}
);
width = 600;
}
);
unicode = 56;
},
{
glyphname = nine;
lastChange = "2023-03-09 22:45:36 +0000";
layers = (
{
layerId = m01;
shapes = (
{
closed = 1;
nodes = (
(399,313,o),
(412,252,o),
(403,190,c),
(389,103,o),
(328,6,o),
(233,0,c),
(156,-4,o),
(88,48,o),
(49,109,c),
(-2,188,o),
(-13,286,o),
(14,375,c),
(36,393,o),
(97,394,o),
(94,355,c),
(73,249,o),
(143,25,o),
(270,153,c),
(132,153,o),
(107,315,o),
(131,422,c),
(131,441,o),
(199,433,o),
(213,429,c),
(228,385,o),
(193,322,o),
(229,282,c),
(317,209,o),
(320,371,o),
(310,422,c),
(307,439,o),
(313,456,o),
(331,456,c),
(348,456,o),
(382,471,o),
(397,458,c),
(408,448,o),
(402,429,o),
(401,417,c),
(399,403,o),
(399,389,o),
(399,375,c)
);
},
{
closed = 1;
nodes = (
(400,314,o),
(168,411,o),
(212,580,c),
(282,840,o),
(630,639,o),
(495,454,c)
);
}
);
width = 600;
},
{
layerId = "CE1FC1EA-F01D-4D6B-B303-7D1D353E5BAE";
shapes = (
{
closed = 1;
nodes = (
(399,313,o),
(412,252,o),
(403,190,c),
(389,103,o),
(328,6,o),
(233,0,c),
(156,-4,o),
(88,48,o),
(49,109,c),
(-2,188,o),
(-13,286,o),
(14,375,c),
(36,393,o),
(97,394,o),
(94,355,c),
(73,249,o),
(143,25,o),
(270,153,c),
(132,153,o),
(107,315,o),
(131,422,c),
(131,441,o),
(199,433,o),
(213,429,c),
(228,385,o),
(193,322,o),
(229,282,c),
(317,209,o),
(320,371,o),
(310,422,c),
(307,439,o),
(313,456,o),
(331,456,c),
(348,456,o),
(382,471,o),
(397,458,c),
(408,448,o),
(402,429,o),
(401,417,c),
(399,403,o),
(399,389,o),
(399,375,c)
);
},
{
closed = 1;
nodes = (
(400,314,o),
(168,411,o),
(212,580,c),
(282,840,o),
(630,639,o),
(495,454,c)
);
}
);
width = 600;
}
);
unicode = 57;
},
